<?xml version="1.0" encoding="utf-8" standalone="no"?>
<!DOCTYPE svg PUBLIC "-//W3C//DTD SVG 1.1//EN"
  "http://www.w3.org/Graphics/SVG/1.1/DTD/svg11.dtd">
<svg xmlns:xlink="http://www.w3.org/1999/xlink" width="432pt" height="288pt" viewBox="0 0 432 288" xmlns="http://www.w3.org/2000/svg" version="1.1">
 <metadata>
  <rdf:RDF xmlns:dc="http://purl.org/dc/elements/1.1/" xmlns:cc="http://creativecommons.org/ns#" xmlns:rdf="http://www.w3.org/1999/02/22-rdf-syntax-ns#">
   <cc:Work>
    <dc:type rdf:resource="http://purl.org/dc/dcmitype/StillImage"/>
    <dc:date>2023-04-14T22:04:10.175033</dc:date>
    <dc:format>image/svg+xml</dc:format>
    <dc:creator>
     <cc:Agent>
      <dc:title>Matplotlib v3.5.1, https://matplotlib.org/</dc:title>
     </cc:Agent>
    </dc:creator>
   </cc:Work>
  </rdf:RDF>
 </metadata>
 <defs>
  <style type="text/css">*{stroke-linejoin: round; stroke-linecap: butt}</style>
 </defs>
 <g id="figure_1">
  <g id="patch_1">
   <path d="M 0 288 
L 432 288 
L 432 0 
L 0 0 
z
" style="fill: #ffffff"/>
  </g>
  <g id="axes_1">
   <g id="patch_2">
    <path d="M 54 252 
L 388.8 252 
L 388.8 34.56 
L 54 34.56 
z
" style="fill: #eaeaf2"/>
   </g>
   <g id="matplotlib.axis_1">
    <g id="xtick_1">
     <g id="line2d_1">
      <path d="M 69.218182 252 
L 69.218182 34.56 
" clip-path="url(#p387093a911)" style="fill: none; stroke: #ffffff; stroke-width: 0.8; stroke-linecap: round"/>
     </g>
     <g id="text_1">
      <!-- 0 -->
      <g style="fill: #262626" transform="translate(66.549994 266.499875)scale(0.088 -0.088)">
       <defs>
        <path id="SFProDisplay-Regular-30" d="M 1938 -75 
C 2975 -75 3597 822 3597 2253 
L 3597 2259 
C 3597 3691 2975 4584 1938 4584 
C 900 4584 284 3691 284 2259 
L 284 2253 
C 284 822 900 -75 1938 -75 
z
M 1938 416 
C 1250 416 850 1122 850 2253 
L 850 2259 
C 850 3391 1250 4091 1938 4091 
C 2625 4091 3031 3391 3031 2259 
L 3031 2253 
C 3031 1122 2625 416 1938 416 
z
" transform="scale(0.015625)"/>
       </defs>
       <use xlink:href="#SFProDisplay-Regular-30"/>
      </g>
     </g>
    </g>
    <g id="xtick_2">
     <g id="line2d_2">
      <path d="M 131.33321 252 
L 131.33321 34.56 
" clip-path="url(#p387093a911)" style="fill: none; stroke: #ffffff; stroke-width: 0.8; stroke-linecap: round"/>
     </g>
     <g id="text_2">
      <!-- 10 -->
      <g style="fill: #262626" transform="translate(126.713897 266.499875)scale(0.088 -0.088)">
       <defs>
        <path id="SFProDisplay-Regular-31" d="M 1516 0 
L 2059 0 
L 2059 4509 
L 1509 4509 
L 309 3647 
L 309 3081 
L 1503 3913 
L 1516 3913 
L 1516 0 
z
" transform="scale(0.015625)"/>
       </defs>
       <use xlink:href="#SFProDisplay-Regular-31"/>
       <use xlink:href="#SFProDisplay-Regular-30" x="44.335938"/>
      </g>
     </g>
    </g>
    <g id="xtick_3">
     <g id="line2d_3">
      <path d="M 193.448237 252 
L 193.448237 34.56 
" clip-path="url(#p387093a911)" style="fill: none; stroke: #ffffff; stroke-width: 0.8; stroke-linecap: round"/>
     </g>
     <g id="text_3">
      <!-- 20 -->
      <g style="fill: #262626" transform="translate(188.289925 266.499875)scale(0.088 -0.088)">
       <defs>
        <path id="SFProDisplay-Regular-32" d="M 366 0 
L 3341 0 
L 3341 500 
L 1138 500 
L 1138 513 
L 2209 1613 
C 3038 2459 3266 2831 3266 3325 
L 3266 3331 
C 3266 4038 2669 4584 1853 4584 
C 1013 4584 338 4006 338 3225 
L 338 3206 
L 881 3206 
L 881 3222 
C 881 3706 1300 4094 1863 4094 
C 2353 4094 2700 3763 2703 3303 
L 2703 3297 
C 2703 2922 2563 2678 1953 2044 
L 366 388 
L 366 0 
z
" transform="scale(0.015625)"/>
       </defs>
       <use xlink:href="#SFProDisplay-Regular-32"/>
       <use xlink:href="#SFProDisplay-Regular-30" x="56.591797"/>
      </g>
     </g>
    </g>
    <g id="xtick_4">
     <g id="line2d_4">
      <path d="M 255.563265 252 
L 255.563265 34.56 
" clip-path="url(#p387093a911)" style="fill: none; stroke: #ffffff; stroke-width: 0.8; stroke-linecap: round"/>
     </g>
     <g id="text_4">
      <!-- 30 -->
      <g style="fill: #262626" transform="translate(250.290828 266.499875)scale(0.088 -0.088)">
       <defs>
        <path id="SFProDisplay-Regular-33" d="M 1884 -75 
C 2788 -75 3450 481 3450 1234 
L 3450 1241 
C 3450 1881 3003 2291 2347 2347 
L 2347 2359 
C 2909 2478 3303 2859 3303 3416 
L 3303 3422 
C 3303 4106 2738 4584 1878 4584 
C 1034 4584 453 4094 381 3359 
L 378 3328 
L 919 3328 
L 922 3359 
C 969 3816 1347 4097 1878 4097 
C 2428 4097 2738 3825 2738 3353 
L 2738 3347 
C 2738 2897 2363 2566 1825 2566 
L 1284 2566 
L 1284 2091 
L 1850 2091 
C 2481 2091 2878 1781 2878 1228 
L 2878 1222 
C 2878 744 2475 413 1884 413 
C 1284 413 878 719 831 1163 
L 828 1194 
L 288 1194 
L 291 1156 
C 350 444 953 -75 1884 -75 
z
" transform="scale(0.015625)"/>
       </defs>
       <use xlink:href="#SFProDisplay-Regular-33"/>
       <use xlink:href="#SFProDisplay-Regular-30" x="59.179688"/>
      </g>
     </g>
    </g>
    <g id="xtick_5">
     <g id="line2d_5">
      <path d="M 317.678293 252 
L 317.678293 34.56 
" clip-path="url(#p387093a911)" style="fill: none; stroke: #ffffff; stroke-width: 0.8; stroke-linecap: round"/>
     </g>
     <g id="text_5">
      <!-- 40 -->
      <g style="fill: #262626" transform="translate(312.350168 266.499875)scale(0.088 -0.088)">
       <defs>
        <path id="SFProDisplay-Regular-34" d="M 2509 0 
L 3053 0 
L 3053 938 
L 3691 938 
L 3691 1431 
L 3053 1431 
L 3053 4509 
L 2222 4509 
L 244 1447 
L 244 938 
L 2509 938 
L 2509 0 
z
M 800 1431 
L 800 1444 
L 2491 4028 
L 2509 4028 
L 2509 1431 
L 800 1431 
z
" transform="scale(0.015625)"/>
       </defs>
       <use xlink:href="#SFProDisplay-Regular-34"/>
       <use xlink:href="#SFProDisplay-Regular-30" x="60.449219"/>
      </g>
     </g>
    </g>
    <g id="xtick_6">
     <g id="line2d_6">
      <path d="M 379.793321 252 
L 379.793321 34.56 
" clip-path="url(#p387093a911)" style="fill: none; stroke: #ffffff; stroke-width: 0.8; stroke-linecap: round"/>
     </g>
     <g id="text_6">
      <!-- 50 -->
      <g style="fill: #262626" transform="translate(374.551133 266.499875)scale(0.088 -0.088)">
       <defs>
        <path id="SFProDisplay-Regular-35" d="M 1916 -75 
C 2853 -75 3519 556 3522 1459 
L 3522 1466 
C 3522 2331 2897 2959 2031 2959 
C 1594 2959 1219 2797 1006 2494 
L 994 2494 
L 1147 4009 
L 3266 4009 
L 3266 4509 
L 684 4509 
L 453 1938 
L 950 1938 
C 1009 2041 1081 2128 1163 2203 
C 1363 2384 1625 2475 1931 2475 
C 2528 2475 2956 2050 2959 1456 
L 2959 1450 
C 2959 844 2534 419 1922 419 
C 1381 419 981 759 925 1206 
L 922 1231 
L 369 1231 
L 372 1197 
C 438 463 1053 -75 1916 -75 
z
" transform="scale(0.015625)"/>
       </defs>
       <use xlink:href="#SFProDisplay-Regular-35"/>
       <use xlink:href="#SFProDisplay-Regular-30" x="58.496094"/>
      </g>
     </g>
    </g>
    <g id="text_7">
     <!-- Execution -->
     <g style="fill: #262626" transform="translate(201.59775 278.767625)scale(0.096 -0.096)">
      <defs>
       <path id="SFProDisplay-Regular-45" d="M 438 0 
L 3231 0 
L 3231 506 
L 1000 506 
L 1000 2056 
L 3116 2056 
L 3116 2556 
L 1000 2556 
L 1000 4003 
L 3231 4003 
L 3231 4509 
L 438 4509 
L 438 0 
z
" transform="scale(0.015625)"/>
       <path id="SFProDisplay-Regular-78" d="M 100 0 
L 703 0 
L 1488 1238 
L 1500 1238 
L 2278 0 
L 2881 0 
L 1800 1647 
L 2897 3250 
L 2291 3250 
L 1519 2031 
L 1506 2031 
L 725 3250 
L 119 3250 
L 1206 1625 
L 100 0 
z
" transform="scale(0.015625)"/>
       <path id="SFProDisplay-Regular-65" d="M 1691 -63 
C 2400 -63 2931 363 3038 900 
L 3044 931 
L 2509 931 
L 2500 903 
C 2406 625 2116 419 1703 419 
C 1125 419 756 809 744 1478 
L 3084 1478 
L 3084 1678 
C 3084 2653 2544 3313 1656 3313 
C 769 3313 194 2622 194 1616 
L 194 1613 
C 194 591 756 -63 1691 -63 
z
M 1653 2831 
C 2128 2831 2478 2534 2531 1903 
L 753 1903 
C 813 2509 1181 2831 1653 2831 
z
" transform="scale(0.015625)"/>
       <path id="SFProDisplay-Regular-63" d="M 1700 -63 
C 2434 -63 2969 416 3056 1034 
L 3059 1056 
L 2525 1056 
L 2519 1031 
C 2428 669 2144 419 1700 419 
C 1138 419 750 866 750 1622 
L 750 1625 
C 750 2363 1128 2831 1694 2831 
C 2172 2831 2434 2544 2516 2219 
L 2522 2194 
L 3053 2194 
L 3050 2219 
C 2981 2775 2503 3313 1694 3313 
C 791 3313 194 2656 194 1631 
L 194 1628 
C 194 594 778 -63 1700 -63 
z
" transform="scale(0.015625)"/>
       <path id="SFProDisplay-Regular-75" d="M 1463 -63 
C 1956 -63 2288 159 2463 463 
L 2475 463 
L 2475 0 
L 3019 0 
L 3019 3250 
L 2475 3250 
L 2475 1338 
C 2475 784 2141 419 1628 419 
C 1128 419 881 709 881 1238 
L 881 3250 
L 338 3250 
L 338 1141 
C 338 400 750 -63 1463 -63 
z
" transform="scale(0.015625)"/>
       <path id="SFProDisplay-Regular-74" d="M 1409 -63 
C 1516 -63 1631 -50 1700 -41 
L 1700 400 
C 1653 397 1591 388 1525 388 
C 1234 388 1081 484 1081 831 
L 1081 2800 
L 1700 2800 
L 1700 3250 
L 1081 3250 
L 1081 4128 
L 519 4128 
L 519 3250 
L 44 3250 
L 44 2800 
L 519 2800 
L 519 828 
C 519 206 813 -63 1409 -63 
z
" transform="scale(0.015625)"/>
       <path id="SFProDisplay-Regular-69" d="M 659 3800 
C 850 3800 1000 3953 1000 4141 
C 1000 4331 850 4481 659 4481 
C 472 4481 319 4331 319 4141 
C 319 3953 472 3800 659 3800 
z
M 388 0 
L 931 0 
L 931 3250 
L 388 3250 
L 388 0 
z
" transform="scale(0.015625)"/>
       <path id="SFProDisplay-Regular-6f" d="M 1700 -63 
C 2597 -63 3203 588 3203 1625 
L 3203 1631 
C 3203 2669 2594 3313 1697 3313 
C 800 3313 194 2666 194 1631 
L 194 1625 
C 194 591 797 -63 1700 -63 
z
M 1703 419 
C 1128 419 750 859 750 1625 
L 750 1631 
C 750 2391 1131 2831 1697 2831 
C 2272 2831 2647 2394 2647 1631 
L 2647 1625 
C 2647 863 2275 419 1703 419 
z
" transform="scale(0.015625)"/>
       <path id="SFProDisplay-Regular-6e" d="M 353 0 
L 897 0 
L 897 1913 
C 897 2466 1231 2831 1744 2831 
C 2244 2831 2491 2541 2491 2013 
L 2491 0 
L 3034 0 
L 3034 2109 
C 3034 2850 2622 3313 1909 3313 
C 1416 3313 1084 3091 909 2788 
L 897 2788 
L 897 3250 
L 353 3250 
L 353 0 
z
" transform="scale(0.015625)"/>
      </defs>
      <use xlink:href="#SFProDisplay-Regular-45"/>
      <use xlink:href="#SFProDisplay-Regular-78" x="55.224609"/>
      <use xlink:href="#SFProDisplay-Regular-65" x="102.050781"/>
      <use xlink:href="#SFProDisplay-Regular-63" x="153.271484"/>
      <use xlink:href="#SFProDisplay-Regular-75" x="203.369141"/>
      <use xlink:href="#SFProDisplay-Regular-74" x="256.054688"/>
      <use xlink:href="#SFProDisplay-Regular-69" x="286.181641"/>
      <use xlink:href="#SFProDisplay-Regular-6f" x="306.787109"/>
      <use xlink:href="#SFProDisplay-Regular-6e" x="359.863281"/>
     </g>
    </g>
   </g>
   <g id="matplotlib.axis_2">
    <g id="ytick_1">
     <g id="line2d_7">
      <path d="M 54 252 
L 388.8 252 
" clip-path="url(#p387093a911)" style="fill: none; stroke: #ffffff; stroke-width: 0.8; stroke-linecap: round"/>
     </g>
     <g id="line2d_8">
      <defs>
       <path id="m2c067bcfeb" d="M 0 0 
L -4.8 0 
" style="stroke: #262626"/>
      </defs>
      <g>
       <use xlink:href="#m2c067bcfeb" x="54" y="252" style="fill: #262626; stroke: #262626"/>
      </g>
     </g>
     <g id="text_8">
      <!-- −0.6 -->
      <g style="fill: #262626" transform="translate(27.721875 255.099938)scale(0.088 -0.088)">
       <defs>
        <path id="SFProDisplay-Regular-2212" d="M 388 1575 
L 3481 1575 
L 3481 2081 
L 388 2081 
L 388 1575 
z
" transform="scale(0.015625)"/>
        <path id="SFProDisplay-Regular-2e" d="M 688 -44 
C 888 -44 1044 113 1044 313 
C 1044 513 888 669 688 669 
C 488 669 331 513 331 313 
C 331 113 488 -44 688 -44 
z
" transform="scale(0.015625)"/>
        <path id="SFProDisplay-Regular-36" d="M 1997 -75 
C 2919 -75 3594 569 3594 1456 
L 3594 1463 
C 3594 2319 2956 2953 2097 2953 
C 1484 2953 1022 2628 841 2228 
L 828 2228 
C 828 2263 828 2294 831 2325 
C 856 3272 1188 4088 2028 4088 
C 2491 4088 2813 3856 2947 3484 
L 2959 3450 
L 3531 3450 
L 3522 3491 
C 3372 4147 2800 4584 2034 4584 
C 931 4584 284 3697 284 2178 
L 284 2172 
C 284 500 1166 -75 1997 -75 
z
M 963 1463 
L 963 1466 
C 963 2041 1409 2459 2000 2459 
C 2594 2459 3022 2038 3022 1450 
L 3022 1444 
C 3022 875 2566 425 1991 425 
C 1413 425 963 884 963 1463 
z
" transform="scale(0.015625)"/>
       </defs>
       <use xlink:href="#SFProDisplay-Regular-2212"/>
       <use xlink:href="#SFProDisplay-Regular-30" x="60.449219"/>
       <use xlink:href="#SFProDisplay-Regular-2e" x="121.09375"/>
       <use xlink:href="#SFProDisplay-Regular-36" x="142.578125"/>
      </g>
     </g>
    </g>
    <g id="ytick_2">
     <g id="line2d_9">
      <path d="M 54 215.76 
L 388.8 215.76 
" clip-path="url(#p387093a911)" style="fill: none; stroke: #ffffff; stroke-width: 0.8; stroke-linecap: round"/>
     </g>
     <g id="line2d_10">
      <g>
       <use xlink:href="#m2c067bcfeb" x="54" y="215.76" style="fill: #262626; stroke: #262626"/>
      </g>
     </g>
     <g id="text_9">
      <!-- −0.4 -->
      <g style="fill: #262626" transform="translate(27.83325 218.859938)scale(0.088 -0.088)">
       <use xlink:href="#SFProDisplay-Regular-2212"/>
       <use xlink:href="#SFProDisplay-Regular-30" x="60.449219"/>
       <use xlink:href="#SFProDisplay-Regular-2e" x="121.09375"/>
       <use xlink:href="#SFProDisplay-Regular-34" x="142.578125"/>
      </g>
     </g>
    </g>
    <g id="ytick_3">
     <g id="line2d_11">
      <path d="M 54 179.52 
L 388.8 179.52 
" clip-path="url(#p387093a911)" style="fill: none; stroke: #ffffff; stroke-width: 0.8; stroke-linecap: round"/>
     </g>
     <g id="line2d_12">
      <g>
       <use xlink:href="#m2c067bcfeb" x="54" y="179.52" style="fill: #262626; stroke: #262626"/>
      </g>
     </g>
     <g id="text_10">
      <!-- −0.2 -->
      <g style="fill: #262626" transform="translate(28.172875 182.619937)scale(0.088 -0.088)">
       <use xlink:href="#SFProDisplay-Regular-2212"/>
       <use xlink:href="#SFProDisplay-Regular-30" x="60.449219"/>
       <use xlink:href="#SFProDisplay-Regular-2e" x="121.09375"/>
       <use xlink:href="#SFProDisplay-Regular-32" x="142.578125"/>
      </g>
     </g>
    </g>
    <g id="ytick_4">
     <g id="line2d_13">
      <path d="M 54 143.28 
L 388.8 143.28 
" clip-path="url(#p387093a911)" style="fill: none; stroke: #ffffff; stroke-width: 0.8; stroke-linecap: round"/>
     </g>
     <g id="line2d_14">
      <g>
       <use xlink:href="#m2c067bcfeb" x="54" y="143.28" style="fill: #262626; stroke: #262626"/>
      </g>
     </g>
     <g id="text_11">
      <!-- 0.0 -->
      <g style="fill: #262626" transform="translate(33.136625 146.379938)scale(0.088 -0.088)">
       <use xlink:href="#SFProDisplay-Regular-30"/>
       <use xlink:href="#SFProDisplay-Regular-2e" x="60.644531"/>
       <use xlink:href="#SFProDisplay-Regular-30" x="82.128906"/>
      </g>
     </g>
    </g>
    <g id="ytick_5">
     <g id="line2d_15">
      <path d="M 54 107.04 
L 388.8 107.04 
" clip-path="url(#p387093a911)" style="fill: none; stroke: #ffffff; stroke-width: 0.8; stroke-linecap: round"/>
     </g>
     <g id="line2d_16">
      <g>
       <use xlink:href="#m2c067bcfeb" x="54" y="107.04" style="fill: #262626; stroke: #262626"/>
      </g>
     </g>
     <g id="text_12">
      <!-- 0.2 -->
      <g style="fill: #262626" transform="translate(33.49275 110.139938)scale(0.088 -0.088)">
       <use xlink:href="#SFProDisplay-Regular-30"/>
       <use xlink:href="#SFProDisplay-Regular-2e" x="60.644531"/>
       <use xlink:href="#SFProDisplay-Regular-32" x="82.128906"/>
      </g>
     </g>
    </g>
    <g id="ytick_6">
     <g id="line2d_17">
      <path d="M 54 70.8 
L 388.8 70.8 
" clip-path="url(#p387093a911)" style="fill: none; stroke: #ffffff; stroke-width: 0.8; stroke-linecap: round"/>
     </g>
     <g id="line2d_18">
      <g>
       <use xlink:href="#m2c067bcfeb" x="54" y="70.8" style="fill: #262626; stroke: #262626"/>
      </g>
     </g>
     <g id="text_13">
      <!-- 0.4 -->
      <g style="fill: #262626" transform="translate(33.153125 73.899938)scale(0.088 -0.088)">
       <use xlink:href="#SFProDisplay-Regular-30"/>
       <use xlink:href="#SFProDisplay-Regular-2e" x="60.644531"/>
       <use xlink:href="#SFProDisplay-Regular-34" x="82.128906"/>
      </g>
     </g>
    </g>
    <g id="ytick_7">
     <g id="line2d_19">
      <path d="M 54 34.56 
L 388.8 34.56 
" clip-path="url(#p387093a911)" style="fill: none; stroke: #ffffff; stroke-width: 0.8; stroke-linecap: round"/>
     </g>
     <g id="line2d_20">
      <g>
       <use xlink:href="#m2c067bcfeb" x="54" y="34.56" style="fill: #262626; stroke: #262626"/>
      </g>
     </g>
     <g id="text_14">
      <!-- 0.6 -->
      <g style="fill: #262626" transform="translate(33.04175 37.659937)scale(0.088 -0.088)">
       <use xlink:href="#SFProDisplay-Regular-30"/>
       <use xlink:href="#SFProDisplay-Regular-2e" x="60.644531"/>
       <use xlink:href="#SFProDisplay-Regular-36" x="82.128906"/>
      </g>
     </g>
    </g>
    <g id="text_15">
     <!-- Topic Coherence -->
     <g style="fill: #262626" transform="translate(22.080875 177.849)rotate(-90)scale(0.096 -0.096)">
      <defs>
       <path id="SFProDisplay-Regular-54" d="M 1578 0 
L 2141 0 
L 2141 4003 
L 3563 4003 
L 3563 4509 
L 156 4509 
L 156 4003 
L 1578 4003 
L 1578 0 
z
" transform="scale(0.015625)"/>
       <path id="SFProDisplay-Regular-70" d="M 353 -1094 
L 897 -1094 
L 897 544 
L 909 544 
C 1113 169 1491 -63 1950 -63 
C 2766 -63 3322 597 3322 1622 
L 3322 1625 
C 3322 2650 2772 3313 1941 3313 
C 1475 3313 1113 3078 909 2700 
L 897 2700 
L 897 3250 
L 353 3250 
L 353 -1094 
z
M 1834 419 
C 1288 419 894 897 894 1622 
L 894 1625 
C 894 2353 1284 2831 1834 2831 
C 2409 2831 2766 2372 2766 1625 
L 2766 1622 
C 2766 881 2409 419 1834 419 
z
" transform="scale(0.015625)"/>
       <path id="SFProDisplay-Regular-20" transform="scale(0.015625)"/>
       <path id="SFProDisplay-Regular-43" d="M 2322 -75 
C 3266 -75 3988 484 4159 1347 
L 4166 1378 
L 3597 1378 
L 3588 1350 
C 3391 756 2953 444 2322 444 
C 1425 444 841 1159 841 2256 
L 841 2259 
C 841 3356 1422 4066 2322 4066 
C 2956 4066 3400 3747 3575 3200 
L 3597 3131 
L 4166 3131 
L 4159 3163 
C 3988 4016 3259 4584 2322 4584 
C 1066 4584 263 3678 263 2259 
L 263 2256 
C 263 838 1069 -75 2322 -75 
z
" transform="scale(0.015625)"/>
       <path id="SFProDisplay-Regular-68" d="M 381 0 
L 925 0 
L 925 1897 
C 925 2450 1259 2831 1763 2831 
C 2269 2831 2569 2484 2569 1897 
L 2569 0 
L 3113 0 
L 3113 1991 
C 3113 2778 2641 3313 1950 3313 
C 1466 3313 1113 3097 938 2731 
L 925 2731 
L 925 4509 
L 381 4509 
L 381 0 
z
" transform="scale(0.015625)"/>
       <path id="SFProDisplay-Regular-72" d="M 353 0 
L 897 0 
L 897 2006 
C 897 2500 1172 2794 1594 2794 
C 1725 2794 1841 2778 1884 2763 
L 1884 3291 
C 1841 3297 1759 3313 1666 3313 
C 1300 3313 1019 3075 909 2700 
L 897 2700 
L 897 3250 
L 353 3250 
L 353 0 
z
" transform="scale(0.015625)"/>
      </defs>
      <use xlink:href="#SFProDisplay-Regular-54"/>
      <use xlink:href="#SFProDisplay-Regular-6f" x="58.105469"/>
      <use xlink:href="#SFProDisplay-Regular-70" x="111.181641"/>
      <use xlink:href="#SFProDisplay-Regular-69" x="166.113281"/>
      <use xlink:href="#SFProDisplay-Regular-63" x="186.71875"/>
      <use xlink:href="#SFProDisplay-Regular-20" x="236.816406"/>
      <use xlink:href="#SFProDisplay-Regular-43" x="257.324219"/>
      <use xlink:href="#SFProDisplay-Regular-6f" x="325.927734"/>
      <use xlink:href="#SFProDisplay-Regular-68" x="379.003906"/>
      <use xlink:href="#SFProDisplay-Regular-65" x="432.910156"/>
      <use xlink:href="#SFProDisplay-Regular-72" x="484.130859"/>
      <use xlink:href="#SFProDisplay-Regular-65" x="514.941406"/>
      <use xlink:href="#SFProDisplay-Regular-6e" x="566.162109"/>
      <use xlink:href="#SFProDisplay-Regular-63" x="618.847656"/>
      <use xlink:href="#SFProDisplay-Regular-65" x="668.945312"/>
     </g>
    </g>
   </g>
   <g id="line2d_21">
    <path d="M 69.218182 137.258658 
L 75.429685 137.567279 
L 81.641187 136.641416 
L 87.85269 225.24642 
L 94.064193 225.349319 
L 100.275696 228.099158 
L 106.487199 237.524059 
L 112.698701 136.74429 
L 118.910204 137.258658 
L 125.121707 137.567279 
L 131.33321 136.641416 
L 137.544712 136.950037 
L 143.756215 136.950037 
L 149.967718 137.155785 
L 156.179221 136.74429 
L 162.390724 137.670153 
L 168.602226 136.950037 
L 174.813729 137.155785 
L 181.025232 137.670153 
L 187.236735 137.052911 
L 193.448237 137.155785 
L 199.65974 137.384528 
L 205.871243 136.74429 
L 212.082746 136.950037 
L 218.294249 137.052911 
L 224.505751 137.773027 
L 230.717254 137.361532 
L 236.928757 136.950037 
L 243.14026 136.950037 
L 249.351763 137.567279 
L 255.563265 137.258658 
L 261.774768 137.258658 
L 267.986271 137.464406 
L 274.197774 137.464406 
L 280.409276 136.719988 
L 286.620779 136.719988 
L 292.832282 137.028609 
L 299.043785 136.641416 
L 305.255288 228.608329 
L 311.46679 136.641416 
L 317.678293 136.641416 
L 323.889796 136.641416 
L 330.101299 136.641416 
L 336.312801 136.641416 
L 342.524304 136.641416 
L 348.735807 224.331077 
L 354.94731 136.641416 
L 361.158813 136.641416 
L 367.370315 136.641416 
L 373.581818 136.641416 
" clip-path="url(#p387093a911)" style="fill: none; stroke: #1f77b4; stroke-width: 1.2; stroke-linecap: round"/>
   </g>
   <g id="patch_3">
    <path d="M 54 252 
L 54 34.56 
" style="fill: none; stroke: #ffffff; stroke-linejoin: miter; stroke-linecap: square"/>
   </g>
   <g id="patch_4">
    <path d="M 388.8 252 
L 388.8 34.56 
" style="fill: none; stroke: #ffffff; stroke-linejoin: miter; stroke-linecap: square"/>
   </g>
   <g id="patch_5">
    <path d="M 54 252 
L 388.8 252 
" style="fill: none; stroke: #ffffff; stroke-linejoin: miter; stroke-linecap: square"/>
   </g>
   <g id="patch_6">
    <path d="M 54 34.56 
L 388.8 34.56 
" style="fill: none; stroke: #ffffff; stroke-linejoin: miter; stroke-linecap: square"/>
   </g>
   <g id="text_16">
    <!-- Performance along search space - ETM -->
    <g style="fill: #262626" transform="translate(142.32 28.56)scale(0.096 -0.096)">
     <defs>
      <path id="SFProDisplay-Regular-50" d="M 438 0 
L 1000 0 
L 1000 1609 
L 2044 1609 
C 2891 1609 3491 2206 3491 3063 
L 3491 3069 
C 3491 3925 2891 4509 2044 4509 
L 438 4509 
L 438 0 
z
M 1900 4009 
C 2544 4009 2916 3656 2916 3063 
L 2916 3056 
C 2916 2463 2544 2109 1900 2109 
L 1000 2109 
L 1000 4009 
L 1900 4009 
z
" transform="scale(0.015625)"/>
      <path id="SFProDisplay-Regular-66" d="M 528 0 
L 1072 0 
L 1072 2800 
L 1734 2800 
L 1734 3250 
L 1066 3250 
L 1066 3647 
C 1066 3969 1216 4122 1516 4122 
C 1600 4122 1684 4119 1750 4109 
L 1750 4550 
C 1669 4563 1541 4572 1419 4572 
C 819 4572 528 4275 528 3650 
L 528 3250 
L 75 3250 
L 75 2800 
L 528 2800 
L 528 0 
z
" transform="scale(0.015625)"/>
      <path id="SFProDisplay-Regular-6d" d="M 353 0 
L 897 0 
L 897 2038 
C 897 2491 1209 2831 1641 2831 
C 2044 2831 2306 2572 2306 2178 
L 2306 0 
L 2850 0 
L 2850 2066 
C 2850 2509 3153 2831 3584 2831 
C 4013 2831 4259 2566 4259 2119 
L 4259 0 
L 4803 0 
L 4803 2244 
C 4803 2891 4388 3313 3744 3313 
C 3288 3313 2906 3078 2725 2688 
L 2713 2688 
C 2572 3084 2244 3313 1800 3313 
C 1381 3313 1056 3097 909 2775 
L 897 2775 
L 897 3250 
L 353 3250 
L 353 0 
z
" transform="scale(0.015625)"/>
      <path id="SFProDisplay-Regular-61" d="M 1303 -63 
C 1738 -63 2128 172 2319 528 
L 2331 528 
L 2331 0 
L 2875 0 
L 2875 2247 
C 2875 2897 2394 3313 1625 3313 
C 859 3313 394 2881 347 2347 
L 344 2313 
L 869 2313 
L 875 2341 
C 938 2631 1200 2831 1619 2831 
C 2072 2831 2331 2591 2331 2194 
L 2331 1922 
L 1400 1869 
C 653 1825 222 1478 222 925 
L 222 919 
C 222 328 656 -63 1303 -63 
z
M 778 919 
L 778 925 
C 778 1228 1028 1422 1463 1447 
L 2331 1500 
L 2331 1234 
C 2331 763 1938 409 1425 409 
C 1034 409 778 606 778 919 
z
" transform="scale(0.015625)"/>
      <path id="SFProDisplay-Regular-6c" d="M 381 0 
L 925 0 
L 925 4509 
L 381 4509 
L 381 0 
z
" transform="scale(0.015625)"/>
      <path id="SFProDisplay-Regular-67" d="M 1728 -1156 
C 2609 -1156 3163 -663 3163 91 
L 3163 3250 
L 2619 3250 
L 2619 2700 
L 2606 2700 
C 2406 3063 2044 3313 1584 3313 
C 759 3313 194 2656 194 1647 
L 194 1644 
C 194 628 753 -31 1572 -31 
C 2038 -31 2413 200 2606 559 
L 2619 559 
L 2619 144 
C 2619 -359 2294 -675 1722 -675 
C 1278 -675 969 -531 866 -297 
L 853 -269 
L 306 -269 
L 313 -297 
C 419 -778 925 -1156 1728 -1156 
z
M 1691 450 
C 1113 450 750 906 750 1644 
L 750 1647 
C 750 2369 1113 2831 1691 2831 
C 2241 2831 2619 2363 2619 1647 
L 2619 1644 
C 2619 922 2244 450 1691 450 
z
" transform="scale(0.015625)"/>
      <path id="SFProDisplay-Regular-73" d="M 1506 -63 
C 2231 -63 2769 338 2769 906 
L 2769 909 
C 2769 1372 2531 1631 1875 1791 
L 1359 1916 
C 1000 2003 853 2156 853 2378 
L 853 2381 
C 853 2669 1097 2859 1491 2859 
C 1894 2859 2134 2650 2178 2334 
L 2181 2313 
L 2700 2313 
L 2697 2353 
C 2656 2897 2203 3313 1491 3313 
C 788 3313 297 2916 297 2356 
L 297 2353 
C 297 1884 594 1600 1206 1453 
L 1722 1328 
C 2091 1238 2213 1106 2213 872 
L 2213 869 
C 2213 575 1950 391 1509 391 
C 1066 391 825 581 759 906 
L 753 938 
L 209 938 
L 213 909 
C 278 328 741 -63 1506 -63 
z
" transform="scale(0.015625)"/>
      <path id="SFProDisplay-Regular-2d" d="M 372 1575 
L 2372 1575 
L 2372 2081 
L 372 2081 
L 372 1575 
z
" transform="scale(0.015625)"/>
      <path id="SFProDisplay-Regular-4d" d="M 438 0 
L 963 0 
L 963 3484 
L 981 3484 
L 2422 0 
L 2897 0 
L 4338 3484 
L 4356 3484 
L 4356 0 
L 4881 0 
L 4881 4509 
L 4231 4509 
L 2669 709 
L 2650 709 
L 1088 4509 
L 438 4509 
L 438 0 
z
" transform="scale(0.015625)"/>
     </defs>
     <use xlink:href="#SFProDisplay-Regular-50"/>
     <use xlink:href="#SFProDisplay-Regular-65" x="57.763672"/>
     <use xlink:href="#SFProDisplay-Regular-72" x="108.984375"/>
     <use xlink:href="#SFProDisplay-Regular-66" x="139.794922"/>
     <use xlink:href="#SFProDisplay-Regular-6f" x="170.166016"/>
     <use xlink:href="#SFProDisplay-Regular-72" x="223.242188"/>
     <use xlink:href="#SFProDisplay-Regular-6d" x="254.052734"/>
     <use xlink:href="#SFProDisplay-Regular-61" x="334.375"/>
     <use xlink:href="#SFProDisplay-Regular-6e" x="384.570312"/>
     <use xlink:href="#SFProDisplay-Regular-63" x="437.255859"/>
     <use xlink:href="#SFProDisplay-Regular-65" x="487.353516"/>
     <use xlink:href="#SFProDisplay-Regular-20" x="538.574219"/>
     <use xlink:href="#SFProDisplay-Regular-61" x="559.082031"/>
     <use xlink:href="#SFProDisplay-Regular-6c" x="609.277344"/>
     <use xlink:href="#SFProDisplay-Regular-6f" x="629.6875"/>
     <use xlink:href="#SFProDisplay-Regular-6e" x="682.763672"/>
     <use xlink:href="#SFProDisplay-Regular-67" x="735.449219"/>
     <use xlink:href="#SFProDisplay-Regular-20" x="790.332031"/>
     <use xlink:href="#SFProDisplay-Regular-73" x="810.839844"/>
     <use xlink:href="#SFProDisplay-Regular-65" x="857.373047"/>
     <use xlink:href="#SFProDisplay-Regular-61" x="908.59375"/>
     <use xlink:href="#SFProDisplay-Regular-72" x="958.789062"/>
     <use xlink:href="#SFProDisplay-Regular-63" x="989.599609"/>
     <use xlink:href="#SFProDisplay-Regular-68" x="1039.697266"/>
     <use xlink:href="#SFProDisplay-Regular-20" x="1093.603516"/>
     <use xlink:href="#SFProDisplay-Regular-73" x="1114.111328"/>
     <use xlink:href="#SFProDisplay-Regular-70" x="1160.644531"/>
     <use xlink:href="#SFProDisplay-Regular-61" x="1215.576172"/>
     <use xlink:href="#SFProDisplay-Regular-63" x="1265.771484"/>
     <use xlink:href="#SFProDisplay-Regular-65" x="1315.869141"/>
     <use xlink:href="#SFProDisplay-Regular-20" x="1367.089844"/>
     <use xlink:href="#SFProDisplay-Regular-2d" x="1387.597656"/>
     <use xlink:href="#SFProDisplay-Regular-20" x="1430.46875"/>
     <use xlink:href="#SFProDisplay-Regular-45" x="1450.976562"/>
     <use xlink:href="#SFProDisplay-Regular-54" x="1506.201172"/>
     <use xlink:href="#SFProDisplay-Regular-4d" x="1564.306641"/>
    </g>
   </g>
  </g>
  <g id="axes_2">
   <g id="matplotlib.axis_3">
    <g id="ytick_8">
     <g id="line2d_22">
      <defs>
       <path id="m82b9c8fe8c" d="M 0 0 
L 4.8 0 
" style="stroke: #262626"/>
      </defs>
      <g>
       <use xlink:href="#m82b9c8fe8c" x="388.8" y="252" style="fill: #262626; stroke: #262626"/>
      </g>
     </g>
     <g id="text_17">
      <!-- 0.2 -->
      <g style="fill: #262626" transform="translate(397.1 255.099938)scale(0.088 -0.088)">
       <use xlink:href="#SFProDisplay-Regular-30"/>
       <use xlink:href="#SFProDisplay-Regular-2e" x="60.644531"/>
       <use xlink:href="#SFProDisplay-Regular-32" x="82.128906"/>
      </g>
     </g>
    </g>
    <g id="ytick_9">
     <g id="line2d_23">
      <g>
       <use xlink:href="#m82b9c8fe8c" x="388.8" y="224.82" style="fill: #262626; stroke: #262626"/>
      </g>
     </g>
     <g id="text_18">
      <!-- 0.3 -->
      <g style="fill: #262626" transform="translate(397.1 227.919937)scale(0.088 -0.088)">
       <use xlink:href="#SFProDisplay-Regular-30"/>
       <use xlink:href="#SFProDisplay-Regular-2e" x="60.644531"/>
       <use xlink:href="#SFProDisplay-Regular-33" x="82.128906"/>
      </g>
     </g>
    </g>
    <g id="ytick_10">
     <g id="line2d_24">
      <g>
       <use xlink:href="#m82b9c8fe8c" x="388.8" y="197.64" style="fill: #262626; stroke: #262626"/>
      </g>
     </g>
     <g id="text_19">
      <!-- 0.4 -->
      <g style="fill: #262626" transform="translate(397.1 200.739937)scale(0.088 -0.088)">
       <use xlink:href="#SFProDisplay-Regular-30"/>
       <use xlink:href="#SFProDisplay-Regular-2e" x="60.644531"/>
       <use xlink:href="#SFProDisplay-Regular-34" x="82.128906"/>
      </g>
     </g>
    </g>
    <g id="ytick_11">
     <g id="line2d_25">
      <g>
       <use xlink:href="#m82b9c8fe8c" x="388.8" y="170.46" style="fill: #262626; stroke: #262626"/>
      </g>
     </g>
     <g id="text_20">
      <!-- 0.5 -->
      <g style="fill: #262626" transform="translate(397.1 173.559937)scale(0.088 -0.088)">
       <use xlink:href="#SFProDisplay-Regular-30"/>
       <use xlink:href="#SFProDisplay-Regular-2e" x="60.644531"/>
       <use xlink:href="#SFProDisplay-Regular-35" x="82.128906"/>
      </g>
     </g>
    </g>
    <g id="ytick_12">
     <g id="line2d_26">
      <g>
       <use xlink:href="#m82b9c8fe8c" x="388.8" y="143.28" style="fill: #262626; stroke: #262626"/>
      </g>
     </g>
     <g id="text_21">
      <!-- 0.6 -->
      <g style="fill: #262626" transform="translate(397.1 146.379937)scale(0.088 -0.088)">
       <use xlink:href="#SFProDisplay-Regular-30"/>
       <use xlink:href="#SFProDisplay-Regular-2e" x="60.644531"/>
       <use xlink:href="#SFProDisplay-Regular-36" x="82.128906"/>
      </g>
     </g>
    </g>
    <g id="ytick_13">
     <g id="line2d_27">
      <g>
       <use xlink:href="#m82b9c8fe8c" x="388.8" y="116.1" style="fill: #262626; stroke: #262626"/>
      </g>
     </g>
     <g id="text_22">
      <!-- 0.7 -->
      <g style="fill: #262626" transform="translate(397.1 119.199938)scale(0.088 -0.088)">
       <defs>
        <path id="SFProDisplay-Regular-37" d="M 625 0 
L 1216 0 
L 3222 3988 
L 3222 4509 
L 238 4509 
L 238 4009 
L 2666 4009 
L 2666 3997 
L 625 0 
z
" transform="scale(0.015625)"/>
       </defs>
       <use xlink:href="#SFProDisplay-Regular-30"/>
       <use xlink:href="#SFProDisplay-Regular-2e" x="60.644531"/>
       <use xlink:href="#SFProDisplay-Regular-37" x="82.128906"/>
      </g>
     </g>
    </g>
    <g id="ytick_14">
     <g id="line2d_28">
      <g>
       <use xlink:href="#m82b9c8fe8c" x="388.8" y="88.92" style="fill: #262626; stroke: #262626"/>
      </g>
     </g>
     <g id="text_23">
      <!-- 0.8 -->
      <g style="fill: #262626" transform="translate(397.1 92.019937)scale(0.088 -0.088)">
       <defs>
        <path id="SFProDisplay-Regular-38" d="M 1919 -75 
C 2875 -75 3556 463 3556 1219 
L 3556 1225 
C 3556 1781 3166 2244 2588 2378 
L 2588 2391 
C 3081 2544 3394 2919 3394 3394 
L 3394 3400 
C 3394 4081 2772 4584 1919 4584 
C 1066 4584 444 4081 444 3400 
L 444 3394 
C 444 2919 756 2544 1250 2391 
L 1250 2378 
C 672 2244 281 1781 281 1225 
L 281 1219 
C 281 463 963 -75 1919 -75 
z
M 1919 2600 
C 1375 2600 1003 2909 1003 3347 
L 1003 3353 
C 1003 3791 1375 4100 1919 4100 
C 2463 4100 2834 3791 2834 3353 
L 2834 3347 
C 2834 2909 2463 2600 1919 2600 
z
M 1919 416 
C 1297 416 853 766 853 1253 
L 853 1259 
C 853 1753 1294 2106 1919 2106 
C 2544 2106 2984 1753 2984 1259 
L 2984 1253 
C 2984 766 2541 416 1919 416 
z
" transform="scale(0.015625)"/>
       </defs>
       <use xlink:href="#SFProDisplay-Regular-30"/>
       <use xlink:href="#SFProDisplay-Regular-2e" x="60.644531"/>
       <use xlink:href="#SFProDisplay-Regular-38" x="82.128906"/>
      </g>
     </g>
    </g>
    <g id="ytick_15">
     <g id="line2d_29">
      <g>
       <use xlink:href="#m82b9c8fe8c" x="388.8" y="61.74" style="fill: #262626; stroke: #262626"/>
      </g>
     </g>
     <g id="text_24">
      <!-- 0.9 -->
      <g style="fill: #262626" transform="translate(397.1 64.839937)scale(0.088 -0.088)">
       <defs>
        <path id="SFProDisplay-Regular-39" d="M 1953 4584 
C 1031 4584 356 3941 356 3053 
L 356 3047 
C 356 2191 994 1556 1853 1556 
C 2466 1556 2928 1881 3109 2281 
L 3122 2281 
C 3122 2247 3122 2216 3119 2184 
C 3094 1238 2763 422 1922 422 
C 1459 422 1138 653 1003 1025 
L 991 1059 
L 419 1059 
L 428 1019 
C 578 363 1150 -75 1916 -75 
C 3019 -75 3666 813 3666 2331 
L 3666 2338 
C 3666 4009 2784 4584 1953 4584 
z
M 1950 2050 
C 1356 2050 928 2472 928 3059 
L 928 3066 
C 928 3634 1384 4084 1959 4084 
C 2538 4084 2988 3625 2988 3047 
L 2988 3044 
C 2988 2469 2541 2050 1950 2050 
z
" transform="scale(0.015625)"/>
       </defs>
       <use xlink:href="#SFProDisplay-Regular-30"/>
       <use xlink:href="#SFProDisplay-Regular-2e" x="60.644531"/>
       <use xlink:href="#SFProDisplay-Regular-39" x="82.128906"/>
      </g>
     </g>
    </g>
    <g id="ytick_16">
     <g id="line2d_30">
      <g>
       <use xlink:href="#m82b9c8fe8c" x="388.8" y="34.56" style="fill: #262626; stroke: #262626"/>
      </g>
     </g>
     <g id="text_25">
      <!-- 1.0 -->
      <g style="fill: #262626" transform="translate(397.1 37.659938)scale(0.088 -0.088)">
       <use xlink:href="#SFProDisplay-Regular-31"/>
       <use xlink:href="#SFProDisplay-Regular-2e" x="44.335938"/>
       <use xlink:href="#SFProDisplay-Regular-30" x="65.820312"/>
      </g>
     </g>
    </g>
    <g id="text_26">
     <!-- Topic Diversity -->
     <g style="fill: #262626" transform="translate(420.52175 173.139)rotate(-90)scale(0.096 -0.096)">
      <defs>
       <path id="SFProDisplay-Regular-44" d="M 438 0 
L 1953 0 
C 3294 0 4081 834 4081 2256 
L 4081 2263 
C 4081 3678 3288 4509 1953 4509 
L 438 4509 
L 438 0 
z
M 1000 506 
L 1000 4003 
L 1916 4003 
C 2938 4003 3506 3381 3506 2256 
L 3506 2250 
C 3506 1131 2938 506 1916 506 
L 1000 506 
z
" transform="scale(0.015625)"/>
       <path id="SFProDisplay-Regular-76" d="M 1269 0 
L 1825 0 
L 3019 3250 
L 2453 3250 
L 1553 578 
L 1541 578 
L 644 3250 
L 72 3250 
L 1269 0 
z
" transform="scale(0.015625)"/>
       <path id="SFProDisplay-Regular-79" d="M 666 -1094 
C 1253 -1094 1538 -825 1769 -203 
L 3038 3250 
L 2466 3250 
L 1566 544 
L 1553 544 
L 656 3250 
L 75 3250 
L 1281 -3 
L 1216 -188 
C 1084 -556 894 -644 550 -644 
C 484 -644 422 -634 375 -625 
L 375 -1069 
C 444 -1081 559 -1094 666 -1094 
z
" transform="scale(0.015625)"/>
      </defs>
      <use xlink:href="#SFProDisplay-Regular-54"/>
      <use xlink:href="#SFProDisplay-Regular-6f" x="58.105469"/>
      <use xlink:href="#SFProDisplay-Regular-70" x="111.181641"/>
      <use xlink:href="#SFProDisplay-Regular-69" x="166.113281"/>
      <use xlink:href="#SFProDisplay-Regular-63" x="186.71875"/>
      <use xlink:href="#SFProDisplay-Regular-20" x="236.816406"/>
      <use xlink:href="#SFProDisplay-Regular-44" x="257.324219"/>
      <use xlink:href="#SFProDisplay-Regular-69" x="325.195312"/>
      <use xlink:href="#SFProDisplay-Regular-76" x="345.800781"/>
      <use xlink:href="#SFProDisplay-Regular-65" x="394.091797"/>
      <use xlink:href="#SFProDisplay-Regular-72" x="445.3125"/>
      <use xlink:href="#SFProDisplay-Regular-73" x="476.123047"/>
      <use xlink:href="#SFProDisplay-Regular-69" x="522.65625"/>
      <use xlink:href="#SFProDisplay-Regular-74" x="543.261719"/>
      <use xlink:href="#SFProDisplay-Regular-79" x="573.388672"/>
     </g>
    </g>
   </g>
   <g id="line2d_31">
    <path d="M 69.218182 276.462 
L 75.429685 276.462 
L 81.641187 279.18 
L 87.85269 91.638 
L 94.064193 88.92 
L 100.275696 83.484 
L 106.487199 50.868 
L 112.698701 279.18 
L 118.910204 276.462 
L 125.121707 276.462 
L 131.33321 279.18 
L 137.544712 279.18 
L 143.756215 276.462 
L 149.967718 276.462 
L 156.179221 279.18 
L 162.390724 276.462 
L 168.602226 279.18 
L 174.813729 279.18 
L 181.025232 276.462 
L 187.236735 276.462 
L 193.448237 276.462 
L 199.65974 273.744 
L 205.871243 279.18 
L 212.082746 276.462 
L 218.294249 276.462 
L 224.505751 276.462 
L 230.717254 276.462 
L 236.928757 276.462 
L 243.14026 276.462 
L 249.351763 276.462 
L 255.563265 276.462 
L 261.774768 276.462 
L 267.986271 276.462 
L 274.197774 276.462 
L 280.409276 276.462 
L 286.620779 276.462 
L 292.832282 276.462 
L 299.043785 279.18 
L 305.255288 83.484 
L 311.46679 279.18 
L 317.678293 279.18 
L 323.889796 279.18 
L 330.101299 279.18 
L 336.312801 279.18 
L 342.524304 279.18 
L 348.735807 88.92 
L 354.94731 279.18 
L 361.158813 279.18 
L 367.370315 279.18 
L 373.581818 279.18 
" clip-path="url(#p387093a911)" style="fill: none; stroke: #ff7f0e; stroke-width: 1.2; stroke-linecap: round"/>
   </g>
   <g id="patch_7">
    <path d="M 54 252 
L 54 34.56 
" style="fill: none; stroke: #ffffff; stroke-linejoin: miter; stroke-linecap: square"/>
   </g>
   <g id="patch_8">
    <path d="M 388.8 252 
L 388.8 34.56 
" style="fill: none; stroke: #ffffff; stroke-linejoin: miter; stroke-linecap: square"/>
   </g>
   <g id="patch_9">
    <path d="M 54 252 
L 388.8 252 
" style="fill: none; stroke: #ffffff; stroke-linejoin: miter; stroke-linecap: square"/>
   </g>
   <g id="patch_10">
    <path d="M 54 34.56 
L 388.8 34.56 
" style="fill: none; stroke: #ffffff; stroke-linejoin: miter; stroke-linecap: square"/>
   </g>
  </g>
  <g id="legend_1">
   <g id="patch_11">
    <path d="M 304.152875 239.76025 
L 365.9 239.76025 
Q 367.66 239.76025 367.66 238.00025 
L 367.66 214.672 
Q 367.66 212.912 365.9 212.912 
L 304.152875 212.912 
Q 302.392875 212.912 302.392875 214.672 
L 302.392875 238.00025 
Q 302.392875 239.76025 304.152875 239.76025 
z
" style="fill: #eaeaf2; opacity: 0.8; stroke: #cccccc; stroke-width: 0.8; stroke-linejoin: miter"/>
   </g>
   <g id="line2d_32">
    <path d="M 305.912875 219.551875 
L 314.712875 219.551875 
L 323.512875 219.551875 
" style="fill: none; stroke: #1f77b4; stroke-width: 1.2; stroke-linecap: round"/>
   </g>
   <g id="text_27">
    <!-- TC mean -->
    <g style="fill: #262626" transform="translate(330.552875 222.631875)scale(0.088 -0.088)">
     <use xlink:href="#SFProDisplay-Regular-54"/>
     <use xlink:href="#SFProDisplay-Regular-43" x="58.105469"/>
     <use xlink:href="#SFProDisplay-Regular-20" x="126.708984"/>
     <use xlink:href="#SFProDisplay-Regular-6d" x="147.216797"/>
     <use xlink:href="#SFProDisplay-Regular-65" x="227.539062"/>
     <use xlink:href="#SFProDisplay-Regular-61" x="278.759766"/>
     <use xlink:href="#SFProDisplay-Regular-6e" x="328.955078"/>
    </g>
   </g>
   <g id="line2d_33">
    <path d="M 305.912875 231.656 
L 314.712875 231.656 
L 323.512875 231.656 
" style="fill: none; stroke: #ff7f0e; stroke-width: 1.2; stroke-linecap: round"/>
   </g>
   <g id="text_28">
    <!-- TD mean -->
    <g style="fill: #262626" transform="translate(330.552875 234.736)scale(0.088 -0.088)">
     <use xlink:href="#SFProDisplay-Regular-54"/>
     <use xlink:href="#SFProDisplay-Regular-44" x="58.105469"/>
     <use xlink:href="#SFProDisplay-Regular-20" x="125.976562"/>
     <use xlink:href="#SFProDisplay-Regular-6d" x="146.484375"/>
     <use xlink:href="#SFProDisplay-Regular-65" x="226.806641"/>
     <use xlink:href="#SFProDisplay-Regular-61" x="278.027344"/>
     <use xlink:href="#SFProDisplay-Regular-6e" x="328.222656"/>
    </g>
   </g>
  </g>
 </g>
 <defs>
  <clipPath id="p387093a911">
   <rect x="54" y="34.56" width="334.8" height="217.44"/>
  </clipPath>
 </defs>
</svg>
