<?xml version="1.0" encoding="utf-8" standalone="no"?>
<!DOCTYPE svg PUBLIC "-//W3C//DTD SVG 1.1//EN"
  "http://www.w3.org/Graphics/SVG/1.1/DTD/svg11.dtd">
<svg xmlns:xlink="http://www.w3.org/1999/xlink" width="460.8pt" height="345.6pt" viewBox="0 0 460.8 345.6" xmlns="http://www.w3.org/2000/svg" version="1.1">
 <metadata>
  <rdf:RDF xmlns:dc="http://purl.org/dc/elements/1.1/" xmlns:cc="http://creativecommons.org/ns#" xmlns:rdf="http://www.w3.org/1999/02/22-rdf-syntax-ns#">
   <cc:Work>
    <dc:type rdf:resource="http://purl.org/dc/dcmitype/StillImage"/>
    <dc:date>2023-05-10T08:47:55.847879</dc:date>
    <dc:format>image/svg+xml</dc:format>
    <dc:creator>
     <cc:Agent>
      <dc:title>Matplotlib v3.5.1, https://matplotlib.org/</dc:title>
     </cc:Agent>
    </dc:creator>
   </cc:Work>
  </rdf:RDF>
 </metadata>
 <defs>
  <style type="text/css">*{stroke-linejoin: round; stroke-linecap: butt}</style>
 </defs>
 <g id="figure_1">
  <g id="patch_1">
   <path d="M 0 345.6 
L 460.8 345.6 
L 460.8 0 
L 0 0 
z
" style="fill: #ffffff"/>
  </g>
  <g id="axes_1">
   <g id="patch_2">
    <path d="M 57.6 307.584 
L 414.72 307.584 
L 414.72 41.472 
L 57.6 41.472 
z
" style="fill: #eaeaf2"/>
   </g>
   <g id="matplotlib.axis_1">
    <g id="xtick_1">
     <g id="line2d_1">
      <path d="M 73.832727 307.584 
L 73.832727 41.472 
" clip-path="url(#pa7c2bfcf28)" style="fill: none; stroke: #ffffff; stroke-width: 0.8; stroke-linecap: round"/>
     </g>
     <g id="text_1">
      <!-- 0 -->
      <g style="fill: #262626" transform="translate(71.342602 322.044)scale(0.088 -0.088)">
       <defs>
        <path id="Barlow-Medium-30" d="M 1805 -64 
Q 1158 -64 777 304 
Q 397 672 397 1293 
L 397 3187 
Q 397 3808 777 4173 
Q 1158 4538 1805 4538 
Q 2451 4538 2838 4173 
Q 3226 3808 3226 3187 
L 3226 1293 
Q 3226 672 2838 304 
Q 2451 -64 1805 -64 
z
M 1805 467 
Q 2176 467 2393 681 
Q 2611 896 2611 1254 
L 2611 3213 
Q 2611 3571 2393 3785 
Q 2176 4000 1805 4000 
Q 1446 4000 1228 3785 
Q 1011 3571 1011 3213 
L 1011 1254 
Q 1011 896 1228 681 
Q 1446 467 1805 467 
z
" transform="scale(0.015625)"/>
       </defs>
       <use xlink:href="#Barlow-Medium-30"/>
      </g>
     </g>
    </g>
    <g id="xtick_2">
     <g id="line2d_2">
      <path d="M 145.978182 307.584 
L 145.978182 41.472 
" clip-path="url(#pa7c2bfcf28)" style="fill: none; stroke: #ffffff; stroke-width: 0.8; stroke-linecap: round"/>
     </g>
     <g id="text_2">
      <!-- 2 -->
      <g style="fill: #262626" transform="translate(143.584307 322.044)scale(0.088 -0.088)">
       <defs>
        <path id="Barlow-Medium-32" d="M 1146 563 
Q 1139 550 1145 540 
Q 1152 531 1165 531 
L 3091 531 
Q 3155 531 3155 467 
L 3155 64 
Q 3155 0 3091 0 
L 410 0 
Q 346 0 346 64 
L 346 454 
Q 346 499 378 531 
Q 595 781 1376 1702 
L 1818 2234 
Q 2413 2944 2413 3334 
Q 2413 3635 2211 3817 
Q 2010 4000 1677 4000 
Q 1344 4000 1145 3814 
Q 947 3629 954 3328 
L 954 3136 
Q 954 3072 890 3072 
L 397 3072 
Q 333 3072 333 3136 
L 333 3411 
Q 346 3744 522 4000 
Q 698 4256 998 4393 
Q 1299 4531 1677 4531 
Q 2086 4531 2393 4377 
Q 2701 4224 2867 3955 
Q 3034 3686 3034 3347 
Q 3034 2816 2458 2093 
Q 2202 1766 1850 1360 
Q 1498 954 1146 563 
z
" transform="scale(0.015625)"/>
       </defs>
       <use xlink:href="#Barlow-Medium-32"/>
      </g>
     </g>
    </g>
    <g id="xtick_3">
     <g id="line2d_3">
      <path d="M 218.123636 307.584 
L 218.123636 41.472 
" clip-path="url(#pa7c2bfcf28)" style="fill: none; stroke: #ffffff; stroke-width: 0.8; stroke-linecap: round"/>
     </g>
     <g id="text_3">
      <!-- 4 -->
      <g style="fill: #262626" transform="translate(215.615636 322.044)scale(0.088 -0.088)">
       <defs>
        <path id="Barlow-Medium-34" d="M 3226 1754 
Q 3290 1754 3290 1690 
L 3290 1267 
Q 3290 1203 3226 1203 
L 2950 1203 
Q 2925 1203 2925 1178 
L 2925 64 
Q 2925 0 2861 0 
L 2374 0 
Q 2310 0 2310 64 
L 2310 1178 
Q 2310 1203 2285 1203 
L 339 1203 
Q 275 1203 275 1267 
L 275 1613 
Q 275 1645 294 1690 
L 1555 4435 
Q 1574 4480 1626 4480 
L 2138 4480 
Q 2170 4480 2186 4457 
Q 2202 4435 2189 4403 
L 986 1786 
Q 979 1773 985 1763 
Q 992 1754 1005 1754 
L 2285 1754 
Q 2310 1754 2310 1779 
L 2310 2733 
Q 2310 2797 2374 2797 
L 2861 2797 
Q 2925 2797 2925 2733 
L 2925 1779 
Q 2925 1754 2950 1754 
L 3226 1754 
z
" transform="scale(0.015625)"/>
       </defs>
       <use xlink:href="#Barlow-Medium-34"/>
      </g>
     </g>
    </g>
    <g id="xtick_4">
     <g id="line2d_4">
      <path d="M 290.269091 307.584 
L 290.269091 41.472 
" clip-path="url(#pa7c2bfcf28)" style="fill: none; stroke: #ffffff; stroke-width: 0.8; stroke-linecap: round"/>
     </g>
     <g id="text_4">
      <!-- 6 -->
      <g style="fill: #262626" transform="translate(287.968028 322.044)scale(0.088 -0.088)">
       <defs>
        <path id="Barlow-Medium-36" d="M 2886 2208 
Q 3066 1869 3066 1395 
Q 3066 1005 2938 710 
Q 2790 346 2480 150 
Q 2170 -45 1728 -45 
Q 1254 -45 924 172 
Q 595 390 461 787 
Q 365 1056 365 1408 
L 365 3379 
Q 365 3904 729 4217 
Q 1094 4531 1683 4531 
Q 2061 4531 2352 4390 
Q 2643 4250 2803 3997 
Q 2963 3744 2963 3418 
L 2963 3290 
Q 2963 3226 2899 3226 
L 2413 3226 
Q 2349 3226 2349 3290 
L 2349 3347 
Q 2349 3635 2163 3814 
Q 1978 3994 1683 3994 
Q 1370 3994 1174 3808 
Q 979 3622 979 3315 
L 979 2509 
Q 979 2496 988 2493 
Q 998 2490 1011 2502 
Q 1286 2810 1811 2810 
Q 2566 2810 2886 2208 
z
M 2355 902 
Q 2451 1107 2451 1395 
Q 2451 1722 2336 1920 
Q 2150 2291 1709 2291 
Q 1485 2291 1325 2192 
Q 1165 2093 1082 1907 
Q 979 1696 979 1363 
Q 979 1094 1062 909 
Q 1146 704 1312 598 
Q 1478 493 1715 493 
Q 2182 493 2355 902 
z
" transform="scale(0.015625)"/>
       </defs>
       <use xlink:href="#Barlow-Medium-36"/>
      </g>
     </g>
    </g>
    <g id="xtick_5">
     <g id="line2d_5">
      <path d="M 362.414545 307.584 
L 362.414545 41.472 
" clip-path="url(#pa7c2bfcf28)" style="fill: none; stroke: #ffffff; stroke-width: 0.8; stroke-linecap: round"/>
     </g>
     <g id="text_5">
      <!-- 8 -->
      <g style="fill: #262626" transform="translate(360.095608 322.044)scale(0.088 -0.088)">
       <defs>
        <path id="Barlow-Medium-38" d="M 2906 1914 
Q 3040 1645 3040 1274 
Q 3040 864 2861 557 
Q 2707 269 2403 109 
Q 2099 -51 1690 -51 
Q 1280 -51 966 112 
Q 653 275 493 582 
Q 320 883 320 1280 
Q 320 1632 461 1926 
Q 602 2221 877 2368 
Q 909 2381 877 2400 
Q 672 2554 570 2720 
Q 390 2989 390 3334 
Q 390 3712 608 4026 
Q 768 4269 1053 4409 
Q 1338 4550 1690 4550 
Q 2048 4550 2323 4409 
Q 2598 4269 2758 4026 
Q 2970 3712 2970 3334 
Q 2970 2989 2790 2707 
Q 2675 2528 2490 2400 
Q 2458 2381 2490 2368 
Q 2758 2221 2906 1914 
z
M 1088 3661 
Q 998 3494 998 3334 
Q 998 3078 1120 2906 
Q 1293 2618 1683 2618 
Q 2067 2618 2253 2912 
Q 2362 3066 2362 3341 
Q 2362 3520 2278 3667 
Q 2195 3827 2041 3923 
Q 1888 4019 1677 4019 
Q 1478 4019 1324 3923 
Q 1171 3827 1088 3661 
z
M 2272 774 
Q 2419 979 2419 1325 
Q 2419 1632 2310 1830 
Q 2131 2163 1683 2163 
Q 1248 2163 1069 1850 
Q 947 1645 947 1318 
Q 947 998 1082 794 
Q 1267 486 1690 486 
Q 2086 486 2272 774 
z
" transform="scale(0.015625)"/>
       </defs>
       <use xlink:href="#Barlow-Medium-38"/>
      </g>
     </g>
    </g>
    <g id="text_6">
     <!-- Optimization Run -->
     <g style="fill: #262626" transform="translate(200.31825 334.60775)scale(0.096 -0.096)">
      <defs>
       <path id="Barlow-Medium-4f" d="M 1984 -58 
Q 1517 -58 1158 134 
Q 800 326 601 675 
Q 403 1024 403 1478 
L 403 3002 
Q 403 3456 601 3801 
Q 800 4147 1158 4339 
Q 1517 4531 1984 4531 
Q 2458 4531 2816 4339 
Q 3174 4147 3372 3801 
Q 3571 3456 3571 3002 
L 3571 1478 
Q 3571 1024 3372 675 
Q 3174 326 2816 134 
Q 2458 -58 1984 -58 
z
M 1984 474 
Q 2419 474 2688 742 
Q 2957 1011 2957 1453 
L 2957 3008 
Q 2957 3456 2688 3728 
Q 2419 4000 1984 4000 
Q 1549 4000 1283 3728 
Q 1018 3456 1018 3008 
L 1018 1453 
Q 1018 1011 1283 742 
Q 1549 474 1984 474 
z
" transform="scale(0.015625)"/>
       <path id="Barlow-Medium-70" d="M 3091 2438 
Q 3213 2093 3213 1619 
Q 3213 1171 3110 845 
Q 2976 416 2669 182 
Q 2362 -51 1882 -51 
Q 1664 -51 1469 35 
Q 1274 122 1133 282 
Q 1120 294 1110 288 
Q 1101 282 1101 269 
L 1101 -1158 
Q 1101 -1222 1037 -1222 
L 550 -1222 
Q 486 -1222 486 -1158 
L 486 3194 
Q 486 3258 550 3258 
L 1037 3258 
Q 1101 3258 1101 3194 
L 1101 2982 
Q 1101 2970 1110 2963 
Q 1120 2957 1133 2970 
Q 1274 3130 1466 3219 
Q 1658 3309 1882 3309 
Q 2342 3309 2646 3081 
Q 2950 2854 3091 2438 
z
M 2387 787 
Q 2592 1094 2592 1632 
Q 2592 2125 2432 2426 
Q 2246 2778 1824 2778 
Q 1453 2778 1261 2432 
Q 1107 2157 1107 1626 
Q 1107 1088 1274 806 
Q 1459 480 1818 480 
Q 2202 480 2387 787 
z
" transform="scale(0.015625)"/>
       <path id="Barlow-Medium-74" d="M 2054 2816 
Q 2054 2752 1990 2752 
L 1299 2752 
Q 1274 2752 1274 2726 
L 1274 1030 
Q 1274 762 1395 643 
Q 1517 525 1773 525 
L 1958 525 
Q 2022 525 2022 461 
L 2022 64 
Q 2022 0 1958 0 
Q 1754 -13 1664 -13 
Q 1178 -13 931 163 
Q 685 339 685 813 
L 685 2726 
Q 685 2752 659 2752 
L 269 2752 
Q 205 2752 205 2816 
L 205 3194 
Q 205 3258 269 3258 
L 659 3258 
Q 685 3258 685 3283 
L 685 4038 
Q 685 4102 749 4102 
L 1210 4102 
Q 1274 4102 1274 4038 
L 1274 3283 
Q 1274 3258 1299 3258 
L 1990 3258 
Q 2054 3258 2054 3194 
L 2054 2816 
z
" transform="scale(0.015625)"/>
       <path id="Barlow-Medium-69" d="M 819 3770 
Q 640 3770 525 3885 
Q 410 4000 410 4179 
Q 410 4358 525 4473 
Q 640 4589 819 4589 
Q 998 4589 1113 4473 
Q 1229 4358 1229 4179 
Q 1229 4000 1113 3885 
Q 998 3770 819 3770 
z
M 563 6 
Q 499 6 499 70 
L 499 3194 
Q 499 3258 563 3258 
L 1050 3258 
Q 1114 3258 1114 3194 
L 1114 70 
Q 1114 6 1050 6 
L 563 6 
z
" transform="scale(0.015625)"/>
       <path id="Barlow-Medium-6d" d="M 3834 3302 
Q 4320 3302 4601 3011 
Q 4883 2720 4883 2202 
L 4883 64 
Q 4883 0 4819 0 
L 4339 0 
Q 4275 0 4275 64 
L 4275 2074 
Q 4275 2394 4099 2582 
Q 3923 2771 3629 2771 
Q 3334 2771 3148 2585 
Q 2963 2400 2963 2086 
L 2963 64 
Q 2963 0 2899 0 
L 2419 0 
Q 2355 0 2355 64 
L 2355 2074 
Q 2355 2394 2179 2582 
Q 2003 2771 1709 2771 
Q 1414 2771 1238 2585 
Q 1062 2400 1062 2086 
L 1062 64 
Q 1062 0 998 0 
L 512 0 
Q 448 0 448 64 
L 448 3194 
Q 448 3258 512 3258 
L 998 3258 
Q 1062 3258 1062 3194 
L 1062 2976 
Q 1062 2963 1072 2956 
Q 1082 2950 1094 2963 
Q 1376 3302 1914 3302 
Q 2240 3302 2470 3177 
Q 2701 3053 2829 2810 
Q 2848 2784 2867 2810 
Q 3021 3059 3273 3180 
Q 3526 3302 3834 3302 
z
" transform="scale(0.015625)"/>
       <path id="Barlow-Medium-7a" d="M 256 0 
Q 192 0 192 64 
L 192 512 
Q 192 557 218 589 
L 1914 2662 
Q 1926 2675 1920 2684 
Q 1914 2694 1901 2694 
L 288 2694 
Q 224 2694 224 2758 
L 224 3194 
Q 224 3258 288 3258 
L 2598 3258 
Q 2662 3258 2662 3194 
L 2662 2739 
Q 2662 2694 2637 2662 
L 915 589 
Q 902 576 908 566 
Q 915 557 928 557 
L 2605 557 
Q 2669 557 2669 493 
L 2669 64 
Q 2669 0 2605 0 
L 256 0 
z
" transform="scale(0.015625)"/>
       <path id="Barlow-Medium-61" d="M 1638 3309 
Q 2029 3309 2320 3171 
Q 2611 3034 2768 2787 
Q 2925 2541 2925 2227 
L 2925 64 
Q 2925 0 2861 0 
L 2374 0 
Q 2310 0 2310 64 
L 2310 294 
Q 2310 326 2278 307 
Q 2112 134 1872 41 
Q 1632 -51 1338 -51 
Q 864 -51 553 189 
Q 243 429 243 915 
Q 243 1414 592 1699 
Q 941 1984 1568 1984 
L 2285 1984 
Q 2310 1984 2310 2010 
L 2310 2182 
Q 2310 2464 2147 2621 
Q 1984 2778 1651 2778 
Q 1382 2778 1212 2672 
Q 1043 2566 1005 2387 
Q 986 2323 928 2330 
L 410 2400 
Q 346 2413 352 2451 
Q 403 2829 755 3069 
Q 1107 3309 1638 3309 
z
M 1472 467 
Q 1811 467 2060 646 
Q 2310 826 2310 1101 
L 2310 1478 
Q 2310 1504 2285 1504 
L 1683 1504 
Q 1306 1504 1082 1357 
Q 858 1210 858 947 
Q 858 710 1027 588 
Q 1197 467 1472 467 
z
" transform="scale(0.015625)"/>
       <path id="Barlow-Medium-6f" d="M 1779 -51 
Q 1306 -51 954 189 
Q 602 429 461 858 
Q 346 1203 346 1638 
Q 346 2093 454 2406 
Q 595 2829 947 3069 
Q 1299 3309 1786 3309 
Q 2246 3309 2588 3069 
Q 2931 2829 3078 2413 
Q 3194 2086 3194 1645 
Q 3194 1197 3078 858 
Q 2938 429 2592 189 
Q 2246 -51 1779 -51 
z
M 1779 480 
Q 2035 480 2227 624 
Q 2419 768 2502 1030 
Q 2573 1274 2573 1632 
Q 2573 1990 2509 2227 
Q 2426 2490 2234 2634 
Q 2042 2778 1766 2778 
Q 1504 2778 1312 2634 
Q 1120 2490 1037 2227 
Q 966 2003 966 1632 
Q 966 1261 1037 1030 
Q 1114 768 1309 624 
Q 1504 480 1779 480 
z
" transform="scale(0.015625)"/>
       <path id="Barlow-Medium-6e" d="M 1901 3302 
Q 2426 3302 2733 2998 
Q 3040 2694 3040 2176 
L 3040 64 
Q 3040 0 2976 0 
L 2490 0 
Q 2426 0 2426 64 
L 2426 2054 
Q 2426 2374 2240 2572 
Q 2054 2771 1747 2771 
Q 1446 2771 1254 2572 
Q 1062 2374 1062 2061 
L 1062 64 
Q 1062 0 998 0 
L 512 0 
Q 448 0 448 64 
L 448 3194 
Q 448 3258 512 3258 
L 998 3258 
Q 1062 3258 1062 3194 
L 1062 2963 
Q 1062 2950 1072 2944 
Q 1082 2938 1088 2950 
Q 1363 3302 1901 3302 
z
" transform="scale(0.015625)"/>
       <path id="Barlow-Medium-20" transform="scale(0.015625)"/>
       <path id="Barlow-Medium-52" d="M 3078 0 
Q 3027 0 3008 45 
L 2112 1958 
Q 2106 1978 2086 1978 
L 1165 1978 
Q 1139 1978 1139 1952 
L 1139 64 
Q 1139 0 1075 0 
L 589 0 
Q 525 0 525 64 
L 525 4416 
Q 525 4480 589 4480 
L 2310 4480 
Q 2694 4480 2985 4320 
Q 3277 4160 3437 3872 
Q 3597 3584 3597 3206 
Q 3597 2758 3363 2448 
Q 3130 2138 2714 2029 
Q 2688 2016 2701 1997 
L 3629 77 
Q 3635 64 3635 45 
Q 3635 0 3584 0 
L 3078 0 
z
M 1165 3949 
Q 1139 3949 1139 3923 
L 1139 2490 
Q 1139 2464 1165 2464 
L 2234 2464 
Q 2573 2464 2777 2665 
Q 2982 2867 2982 3200 
Q 2982 3539 2777 3744 
Q 2573 3949 2234 3949 
L 1165 3949 
z
" transform="scale(0.015625)"/>
       <path id="Barlow-Medium-75" d="M 2387 3194 
Q 2387 3258 2451 3258 
L 2931 3258 
Q 2995 3258 2995 3194 
L 2995 64 
Q 2995 0 2931 0 
L 2451 0 
Q 2387 0 2387 64 
L 2387 301 
Q 2387 314 2377 317 
Q 2368 320 2355 307 
Q 2099 -45 1568 -45 
Q 1254 -45 988 76 
Q 723 198 563 435 
Q 403 672 403 1011 
L 403 3194 
Q 403 3258 467 3258 
L 947 3258 
Q 1011 3258 1011 3194 
L 1011 1203 
Q 1011 870 1187 678 
Q 1363 486 1683 486 
Q 2003 486 2195 681 
Q 2387 877 2387 1203 
L 2387 3194 
z
" transform="scale(0.015625)"/>
      </defs>
      <use xlink:href="#Barlow-Medium-4f"/>
      <use xlink:href="#Barlow-Medium-70" x="62.199997"/>
      <use xlink:href="#Barlow-Medium-74" x="117.999985"/>
      <use xlink:href="#Barlow-Medium-69" x="154.899979"/>
      <use xlink:href="#Barlow-Medium-6d" x="180.399963"/>
      <use xlink:href="#Barlow-Medium-69" x="262.999954"/>
      <use xlink:href="#Barlow-Medium-7a" x="288.499939"/>
      <use xlink:href="#Barlow-Medium-61" x="333.59993"/>
      <use xlink:href="#Barlow-Medium-74" x="385.299927"/>
      <use xlink:href="#Barlow-Medium-69" x="422.199921"/>
      <use xlink:href="#Barlow-Medium-6f" x="447.699905"/>
      <use xlink:href="#Barlow-Medium-6e" x="503.19989"/>
      <use xlink:href="#Barlow-Medium-20" x="557.399887"/>
      <use xlink:href="#Barlow-Medium-52" x="577.399872"/>
      <use xlink:href="#Barlow-Medium-75" x="638.69986"/>
      <use xlink:href="#Barlow-Medium-6e" x="692.499847"/>
     </g>
    </g>
   </g>
   <g id="matplotlib.axis_2">
    <g id="ytick_1">
     <g id="line2d_6">
      <path d="M 57.6 260.671792 
L 414.72 260.671792 
" clip-path="url(#pa7c2bfcf28)" style="fill: none; stroke: #ffffff; stroke-width: 0.8; stroke-linecap: round"/>
     </g>
     <g id="text_7">
      <!-- 0.56 -->
      <g style="fill: #262626" transform="translate(32.6955 263.751792)scale(0.088 -0.088)">
       <defs>
        <path id="Barlow-Medium-2e" d="M 864 -6 
Q 685 -6 569 109 
Q 454 224 454 403 
Q 454 582 569 697 
Q 685 813 864 813 
Q 1043 813 1158 697 
Q 1274 582 1274 403 
Q 1274 224 1158 109 
Q 1043 -6 864 -6 
z
" transform="scale(0.015625)"/>
        <path id="Barlow-Medium-35" d="M 2995 1984 
Q 3066 1702 3066 1402 
Q 3066 1101 2989 845 
Q 2867 435 2524 195 
Q 2182 -45 1709 -45 
Q 1242 -45 909 185 
Q 576 416 442 813 
Q 378 992 371 1126 
L 371 1139 
Q 371 1190 429 1190 
L 934 1190 
Q 992 1190 998 1133 
Q 1005 1088 1030 998 
Q 1101 762 1277 624 
Q 1453 486 1702 486 
Q 1965 486 2147 630 
Q 2330 774 2394 1030 
Q 2438 1165 2438 1402 
Q 2438 1613 2400 1792 
Q 2355 2035 2172 2166 
Q 1990 2298 1722 2298 
Q 1472 2298 1273 2186 
Q 1075 2074 1018 1888 
Q 998 1830 947 1830 
L 435 1830 
Q 371 1830 371 1894 
L 371 4416 
Q 371 4480 435 4480 
L 2829 4480 
Q 2893 4480 2893 4416 
L 2893 4013 
Q 2893 3949 2829 3949 
L 1011 3949 
Q 986 3949 986 3923 
L 979 2586 
Q 979 2547 1011 2566 
Q 1165 2701 1366 2768 
Q 1568 2835 1792 2835 
Q 2240 2835 2563 2611 
Q 2886 2387 2995 1984 
z
" transform="scale(0.015625)"/>
       </defs>
       <use xlink:href="#Barlow-Medium-30"/>
       <use xlink:href="#Barlow-Medium-2e" x="56.599991"/>
       <use xlink:href="#Barlow-Medium-35" x="84.099976"/>
       <use xlink:href="#Barlow-Medium-36" x="136.399963"/>
      </g>
     </g>
    </g>
    <g id="ytick_2">
     <g id="line2d_7">
      <path d="M 57.6 208.075455 
L 414.72 208.075455 
" clip-path="url(#pa7c2bfcf28)" style="fill: none; stroke: #ffffff; stroke-width: 0.8; stroke-linecap: round"/>
     </g>
     <g id="text_8">
      <!-- 0.57 -->
      <g style="fill: #262626" transform="translate(33.065375 211.155455)scale(0.088 -0.088)">
       <defs>
        <path id="Barlow-Medium-37" d="M 896 0 
Q 864 0 848 22 
Q 832 45 845 77 
L 2298 3917 
Q 2304 3930 2297 3939 
Q 2291 3949 2278 3949 
L 736 3949 
Q 710 3949 710 3923 
L 710 3622 
Q 710 3558 646 3558 
L 262 3558 
Q 198 3558 198 3622 
L 198 4416 
Q 198 4480 262 4480 
L 2893 4480 
Q 2957 4480 2957 4416 
L 2957 3987 
Q 2957 3962 2944 3910 
L 1498 51 
Q 1478 0 1427 0 
L 896 0 
z
" transform="scale(0.015625)"/>
       </defs>
       <use xlink:href="#Barlow-Medium-30"/>
       <use xlink:href="#Barlow-Medium-2e" x="56.599991"/>
       <use xlink:href="#Barlow-Medium-35" x="84.099976"/>
       <use xlink:href="#Barlow-Medium-37" x="136.399963"/>
      </g>
     </g>
    </g>
    <g id="ytick_3">
     <g id="line2d_8">
      <path d="M 57.6 155.479117 
L 414.72 155.479117 
" clip-path="url(#pa7c2bfcf28)" style="fill: none; stroke: #ffffff; stroke-width: 0.8; stroke-linecap: round"/>
     </g>
     <g id="text_9">
      <!-- 0.58 -->
      <g style="fill: #262626" transform="translate(32.65975 158.559117)scale(0.088 -0.088)">
       <use xlink:href="#Barlow-Medium-30"/>
       <use xlink:href="#Barlow-Medium-2e" x="56.599991"/>
       <use xlink:href="#Barlow-Medium-35" x="84.099976"/>
       <use xlink:href="#Barlow-Medium-38" x="136.399963"/>
      </g>
     </g>
    </g>
    <g id="ytick_4">
     <g id="line2d_9">
      <path d="M 57.6 102.882779 
L 414.72 102.882779 
" clip-path="url(#pa7c2bfcf28)" style="fill: none; stroke: #ffffff; stroke-width: 0.8; stroke-linecap: round"/>
     </g>
     <g id="text_10">
      <!-- 0.59 -->
      <g style="fill: #262626" transform="translate(32.677625 105.962779)scale(0.088 -0.088)">
       <defs>
        <path id="Barlow-Medium-39" d="M 2899 3693 
Q 2995 3424 2995 3072 
L 2995 1101 
Q 2995 576 2630 262 
Q 2266 -51 1677 -51 
Q 1299 -51 1008 89 
Q 717 230 557 483 
Q 397 736 397 1062 
L 397 1190 
Q 397 1254 461 1254 
L 947 1254 
Q 1011 1254 1011 1190 
L 1011 1133 
Q 1011 845 1196 665 
Q 1382 486 1677 486 
Q 1984 486 2182 672 
Q 2381 858 2381 1165 
L 2381 1971 
Q 2381 1984 2371 1990 
Q 2362 1997 2349 1984 
Q 2074 1670 1549 1670 
Q 1171 1670 899 1824 
Q 627 1978 474 2272 
Q 294 2611 294 3085 
Q 294 3469 416 3770 
Q 563 4134 876 4329 
Q 1190 4525 1632 4525 
Q 2106 4525 2432 4307 
Q 2758 4090 2899 3693 
z
M 2278 2573 
Q 2381 2784 2381 3117 
Q 2381 3386 2298 3571 
Q 2214 3776 2048 3881 
Q 1882 3987 1645 3987 
Q 1408 3987 1245 3881 
Q 1082 3776 1005 3578 
Q 909 3379 909 3085 
Q 909 2765 1018 2560 
Q 1216 2189 1645 2189 
Q 2099 2189 2278 2573 
z
" transform="scale(0.015625)"/>
       </defs>
       <use xlink:href="#Barlow-Medium-30"/>
       <use xlink:href="#Barlow-Medium-2e" x="56.599991"/>
       <use xlink:href="#Barlow-Medium-35" x="84.099976"/>
       <use xlink:href="#Barlow-Medium-39" x="136.399963"/>
      </g>
     </g>
    </g>
    <g id="ytick_5">
     <g id="line2d_10">
      <path d="M 57.6 50.286442 
L 414.72 50.286442 
" clip-path="url(#pa7c2bfcf28)" style="fill: none; stroke: #ffffff; stroke-width: 0.8; stroke-linecap: round"/>
     </g>
     <g id="text_11">
      <!-- 0.60 -->
      <g style="fill: #262626" transform="translate(32.317375 53.366442)scale(0.088 -0.088)">
       <use xlink:href="#Barlow-Medium-30"/>
       <use xlink:href="#Barlow-Medium-2e" x="56.599991"/>
       <use xlink:href="#Barlow-Medium-36" x="84.099976"/>
       <use xlink:href="#Barlow-Medium-30" x="136.399963"/>
      </g>
     </g>
    </g>
    <g id="text_12">
     <!-- Mean TDCI -->
     <g style="fill: #262626" transform="translate(26.484375 196.4595)rotate(-90)scale(0.096 -0.096)">
      <defs>
       <path id="Barlow-Medium-4d" d="M 3424 4442 
Q 3456 4480 3501 4480 
L 3987 4480 
Q 4051 4480 4051 4416 
L 4051 64 
Q 4051 0 3987 0 
L 3501 0 
Q 3437 0 3437 64 
L 3437 3341 
Q 3437 3360 3424 3366 
Q 3411 3373 3405 3354 
L 2490 1958 
Q 2464 1920 2413 1920 
L 2170 1920 
Q 2125 1920 2093 1958 
L 1171 3341 
Q 1165 3360 1152 3353 
Q 1139 3347 1139 3328 
L 1139 64 
Q 1139 0 1075 0 
L 589 0 
Q 525 0 525 64 
L 525 4416 
Q 525 4480 589 4480 
L 1075 4480 
Q 1126 4480 1152 4442 
L 2272 2765 
Q 2278 2758 2291 2758 
Q 2304 2758 2310 2765 
L 3424 4442 
z
" transform="scale(0.015625)"/>
       <path id="Barlow-Medium-65" d="M 3085 2035 
Q 3110 1773 3104 1446 
Q 3104 1382 3040 1382 
L 998 1382 
Q 973 1382 973 1357 
Q 973 1139 1011 1024 
Q 1082 768 1296 624 
Q 1510 480 1837 480 
Q 2310 480 2566 870 
Q 2598 934 2650 890 
L 3014 646 
Q 3059 608 3034 563 
Q 2854 275 2524 108 
Q 2195 -58 1779 -58 
Q 1312 -58 992 147 
Q 672 352 512 730 
Q 358 1107 358 1645 
Q 358 2112 429 2355 
Q 544 2797 889 3053 
Q 1235 3309 1728 3309 
Q 2374 3309 2694 2985 
Q 3014 2662 3085 2035 
z
M 1728 2778 
Q 1453 2778 1273 2640 
Q 1094 2502 1030 2272 
Q 986 2131 973 1914 
Q 973 1888 998 1888 
L 2464 1888 
Q 2490 1888 2490 1914 
Q 2477 2125 2451 2227 
Q 2387 2477 2198 2627 
Q 2010 2778 1728 2778 
z
" transform="scale(0.015625)"/>
       <path id="Barlow-Medium-54" d="M 3373 4480 
Q 3437 4480 3437 4416 
L 3437 4006 
Q 3437 3942 3373 3942 
L 2144 3942 
Q 2118 3942 2118 3917 
L 2118 64 
Q 2118 0 2054 0 
L 1568 0 
Q 1504 0 1504 64 
L 1504 3917 
Q 1504 3942 1478 3942 
L 307 3942 
Q 243 3942 243 4006 
L 243 4416 
Q 243 4480 307 4480 
L 3373 4480 
z
" transform="scale(0.015625)"/>
       <path id="Barlow-Medium-44" d="M 589 0 
Q 525 0 525 64 
L 525 4416 
Q 525 4480 589 4480 
L 2138 4480 
Q 2803 4480 3200 4131 
Q 3597 3782 3597 3200 
L 3597 1280 
Q 3597 698 3200 349 
Q 2803 0 2138 0 
L 589 0 
z
M 1139 557 
Q 1139 531 1165 531 
L 2163 531 
Q 2534 531 2755 758 
Q 2976 986 2982 1370 
L 2982 3110 
Q 2982 3494 2761 3721 
Q 2541 3949 2163 3949 
L 1165 3949 
Q 1139 3949 1139 3923 
L 1139 557 
z
" transform="scale(0.015625)"/>
       <path id="Barlow-Medium-43" d="M 1965 -58 
Q 1504 -58 1149 124 
Q 794 307 598 643 
Q 403 979 403 1414 
L 403 3072 
Q 403 3507 598 3836 
Q 794 4166 1149 4348 
Q 1504 4531 1965 4531 
Q 2426 4531 2778 4355 
Q 3130 4179 3325 3859 
Q 3520 3539 3520 3117 
L 3520 3110 
Q 3520 3078 3501 3059 
Q 3482 3040 3456 3040 
L 2970 3014 
Q 2906 3014 2906 3072 
L 2906 3091 
Q 2906 3501 2650 3750 
Q 2394 4000 1965 4000 
Q 1536 4000 1277 3750 
Q 1018 3501 1018 3091 
L 1018 1389 
Q 1018 979 1277 729 
Q 1536 480 1965 480 
Q 2394 480 2650 729 
Q 2906 979 2906 1389 
L 2906 1402 
Q 2906 1459 2970 1459 
L 3456 1434 
Q 3520 1434 3520 1370 
Q 3520 947 3325 624 
Q 3130 301 2778 121 
Q 2426 -58 1965 -58 
z
" transform="scale(0.015625)"/>
       <path id="Barlow-Medium-49" d="M 589 0 
Q 525 0 525 64 
L 525 4416 
Q 525 4480 589 4480 
L 1075 4480 
Q 1139 4480 1139 4416 
L 1139 64 
Q 1139 0 1075 0 
L 589 0 
z
" transform="scale(0.015625)"/>
      </defs>
      <use xlink:href="#Barlow-Medium-4d"/>
      <use xlink:href="#Barlow-Medium-65" x="71.499985"/>
      <use xlink:href="#Barlow-Medium-61" x="125.099976"/>
      <use xlink:href="#Barlow-Medium-6e" x="176.799973"/>
      <use xlink:href="#Barlow-Medium-20" x="230.999969"/>
      <use xlink:href="#Barlow-Medium-54" x="250.999954"/>
      <use xlink:href="#Barlow-Medium-44" x="308.399948"/>
      <use xlink:href="#Barlow-Medium-43" x="370.199936"/>
      <use xlink:href="#Barlow-Medium-49" x="430.899933"/>
     </g>
    </g>
   </g>
   <g id="line2d_11">
    <path d="M 73.832727 53.568 
L 109.905455 77.048752 
L 145.978182 200.159431 
L 182.050909 158.169695 
L 218.123636 211.171045 
L 254.196364 62.189961 
L 290.269091 233.078835 
L 326.341818 145.603362 
L 362.414545 207.476318 
L 398.487273 210.576135 
" clip-path="url(#pa7c2bfcf28)" style="fill: none; stroke: #4c72b0; stroke-width: 1.2; stroke-linecap: round"/>
   </g>
   <g id="line2d_12">
    <path d="M 73.832727 246.400651 
L 109.905455 140.55459 
L 145.978182 188.166548 
L 182.050909 221.219391 
L 218.123636 155.270585 
L 254.196364 127.546562 
L 290.269091 260.570765 
L 326.341818 199.224808 
L 362.414545 158.613528 
L 398.487273 187.681912 
" clip-path="url(#pa7c2bfcf28)" style="fill: none; stroke-dasharray: 4.8,1.8; stroke-dashoffset: 0; stroke: #dd8452; stroke-width: 1.2"/>
   </g>
   <g id="line2d_13">
    <path d="M 73.832727 162.344054 
L 109.905455 212.992615 
L 145.978182 80.77181 
L 182.050909 198.188634 
L 218.123636 168.911461 
L 254.196364 149.381685 
L 290.269091 243.188501 
L 326.341818 208.303845 
L 362.414545 267.070283 
L 398.487273 117.096359 
" clip-path="url(#pa7c2bfcf28)" style="fill: none; stroke-dasharray: 1.2,1.2; stroke-dashoffset: 0; stroke: #55a868; stroke-width: 1.2"/>
   </g>
   <g id="line2d_14">
    <path d="M 73.832727 211.074842 
L 109.905455 202.38148 
L 145.978182 211.897958 
L 182.050909 223.414934 
L 218.123636 232.209085 
L 254.196364 187.514608 
L 290.269091 295.488 
L 326.341818 140.339995 
L 362.414545 234.014007 
L 398.487273 159.365566 
" clip-path="url(#pa7c2bfcf28)" style="fill: none; stroke-dasharray: 3.6,1.5,1.8,1.5; stroke-dashoffset: 0; stroke: #c44e52; stroke-width: 1.2"/>
   </g>
   <g id="line2d_15">
    <path d="M 73.832727 239.812046 
L 109.905455 192.361349 
L 145.978182 207.92358 
L 182.050909 176.462648 
L 218.123636 252.95647 
L 254.196364 130.498509 
L 290.269091 232.916526 
L 326.341818 182.359607 
L 362.414545 159.611238 
L 398.487273 167.291576 
" clip-path="url(#pa7c2bfcf28)" style="fill: none; stroke-dasharray: 6,1.2,1.2,1.2; stroke-dashoffset: 0; stroke: #8172b3; stroke-width: 1.2"/>
   </g>
   <g id="line2d_16"/>
   <g id="line2d_17"/>
   <g id="line2d_18"/>
   <g id="line2d_19"/>
   <g id="line2d_20"/>
   <g id="patch_3">
    <path d="M 57.6 307.584 
L 57.6 41.472 
" style="fill: none; stroke: #ffffff; stroke-linejoin: miter; stroke-linecap: square"/>
   </g>
   <g id="patch_4">
    <path d="M 414.72 307.584 
L 414.72 41.472 
" style="fill: none; stroke: #ffffff; stroke-linejoin: miter; stroke-linecap: square"/>
   </g>
   <g id="patch_5">
    <path d="M 57.6 307.584 
L 414.72 307.584 
" style="fill: none; stroke: #ffffff; stroke-linejoin: miter; stroke-linecap: square"/>
   </g>
   <g id="patch_6">
    <path d="M 57.6 41.472 
L 414.72 41.472 
" style="fill: none; stroke: #ffffff; stroke-linejoin: miter; stroke-linecap: square"/>
   </g>
   <g id="text_13">
    <!-- TDCI along optimization runs - NMF - PEC 471 2005 -->
    <g style="fill: #262626" transform="translate(131.28525 35.472)scale(0.096 -0.096)">
     <defs>
      <path id="Barlow-Medium-6c" d="M 512 0 
Q 448 0 448 64 
L 448 4416 
Q 448 4480 512 4480 
L 998 4480 
Q 1062 4480 1062 4416 
L 1062 64 
Q 1062 0 998 0 
L 512 0 
z
" transform="scale(0.015625)"/>
      <path id="Barlow-Medium-67" d="M 2451 3194 
Q 2451 3258 2515 3258 
L 3002 3258 
Q 3066 3258 3066 3194 
L 3066 166 
Q 3066 -608 2627 -941 
Q 2189 -1274 1453 -1274 
Q 1350 -1274 1133 -1261 
Q 1069 -1254 1069 -1190 
L 1088 -749 
Q 1088 -723 1107 -704 
Q 1126 -685 1158 -691 
Q 1248 -698 1421 -698 
Q 1965 -698 2208 -496 
Q 2451 -294 2451 186 
L 2451 301 
Q 2451 314 2441 320 
Q 2432 326 2419 314 
Q 2150 0 1632 0 
Q 1216 0 880 217 
Q 544 435 416 858 
Q 333 1139 333 1638 
Q 333 2170 429 2458 
Q 550 2842 860 3075 
Q 1171 3309 1594 3309 
Q 2118 3309 2419 2989 
Q 2432 2976 2441 2979 
Q 2451 2982 2451 2995 
L 2451 3194 
z
M 2413 1043 
Q 2432 1146 2441 1261 
Q 2451 1376 2451 1645 
Q 2451 1914 2441 2026 
Q 2432 2138 2406 2240 
Q 2355 2477 2176 2627 
Q 1997 2778 1728 2778 
Q 1459 2778 1280 2627 
Q 1101 2477 1024 2240 
Q 954 2048 954 1645 
Q 954 1203 1018 1043 
Q 1082 806 1270 656 
Q 1459 506 1728 506 
Q 2010 506 2186 656 
Q 2362 806 2413 1043 
z
" transform="scale(0.015625)"/>
      <path id="Barlow-Medium-72" d="M 1875 3290 
Q 2080 3290 2246 3206 
Q 2291 3187 2278 3130 
L 2176 2650 
Q 2170 2592 2099 2611 
Q 1990 2656 1843 2656 
L 1754 2650 
Q 1453 2637 1257 2441 
Q 1062 2246 1062 1933 
L 1062 64 
Q 1062 0 998 0 
L 512 0 
Q 448 0 448 64 
L 448 3194 
Q 448 3258 512 3258 
L 998 3258 
Q 1062 3258 1062 3194 
L 1062 2854 
Q 1062 2835 1072 2832 
Q 1082 2829 1088 2842 
Q 1376 3290 1875 3290 
z
" transform="scale(0.015625)"/>
      <path id="Barlow-Medium-73" d="M 1594 -38 
Q 1210 -38 918 77 
Q 627 192 467 393 
Q 307 595 307 838 
L 307 909 
Q 307 973 371 973 
L 832 973 
Q 896 973 896 909 
L 896 877 
Q 896 698 1091 563 
Q 1286 429 1587 429 
Q 1875 429 2054 553 
Q 2234 678 2234 870 
Q 2234 1056 2067 1149 
Q 1901 1242 1530 1344 
Q 1165 1446 918 1552 
Q 672 1658 502 1853 
Q 333 2048 333 2355 
Q 333 2784 669 3037 
Q 1005 3290 1562 3290 
Q 1933 3290 2217 3171 
Q 2502 3053 2656 2841 
Q 2810 2630 2810 2368 
L 2810 2349 
Q 2810 2285 2746 2285 
L 2298 2285 
Q 2234 2285 2234 2349 
L 2234 2368 
Q 2234 2554 2051 2678 
Q 1869 2803 1555 2803 
Q 1274 2803 1098 2694 
Q 922 2586 922 2400 
Q 922 2214 1091 2118 
Q 1261 2022 1638 1914 
Q 2010 1811 2256 1712 
Q 2502 1613 2675 1417 
Q 2848 1222 2848 909 
Q 2848 474 2505 218 
Q 2163 -38 1594 -38 
z
" transform="scale(0.015625)"/>
      <path id="Barlow-Medium-2d" d="M 288 1690 
Q 224 1690 224 1754 
L 224 2157 
Q 224 2221 288 2221 
L 2266 2221 
Q 2330 2221 2330 2157 
L 2330 1754 
Q 2330 1690 2266 1690 
L 288 1690 
z
" transform="scale(0.015625)"/>
      <path id="Barlow-Medium-4e" d="M 3162 4416 
Q 3162 4480 3226 4480 
L 3712 4480 
Q 3776 4480 3776 4416 
L 3776 64 
Q 3776 0 3712 0 
L 3245 0 
Q 3200 0 3168 45 
L 1165 3315 
Q 1158 3334 1145 3331 
Q 1133 3328 1133 3309 
L 1139 64 
Q 1139 0 1075 0 
L 589 0 
Q 525 0 525 64 
L 525 4416 
Q 525 4480 589 4480 
L 1062 4480 
Q 1107 4480 1139 4435 
L 3136 1165 
Q 3142 1146 3155 1149 
Q 3168 1152 3168 1171 
L 3162 4416 
z
" transform="scale(0.015625)"/>
      <path id="Barlow-Medium-46" d="M 3494 4013 
Q 3494 3949 3430 3949 
L 1165 3949 
Q 1139 3949 1139 3923 
L 1139 2547 
Q 1139 2522 1165 2522 
L 2720 2522 
Q 2784 2522 2784 2458 
L 2784 2054 
Q 2784 1990 2720 1990 
L 1165 1990 
Q 1139 1990 1139 1965 
L 1139 64 
Q 1139 0 1075 0 
L 589 0 
Q 525 0 525 64 
L 525 4416 
Q 525 4480 589 4480 
L 3430 4480 
Q 3494 4480 3494 4416 
L 3494 4013 
z
" transform="scale(0.015625)"/>
      <path id="Barlow-Medium-50" d="M 2278 4486 
Q 2669 4486 2966 4323 
Q 3264 4160 3427 3865 
Q 3590 3571 3590 3187 
Q 3590 2803 3424 2515 
Q 3258 2227 2954 2067 
Q 2650 1907 2253 1907 
L 1126 1907 
Q 1101 1907 1101 1882 
L 1101 64 
Q 1101 0 1037 0 
L 550 0 
Q 486 0 486 64 
L 486 4422 
Q 486 4486 550 4486 
L 2278 4486 
z
M 2195 2406 
Q 2547 2406 2761 2617 
Q 2976 2829 2976 3174 
Q 2976 3526 2761 3740 
Q 2547 3955 2195 3955 
L 1126 3955 
Q 1101 3955 1101 3930 
L 1101 2432 
Q 1101 2406 1126 2406 
L 2195 2406 
z
" transform="scale(0.015625)"/>
      <path id="Barlow-Medium-45" d="M 3501 4013 
Q 3501 3949 3437 3949 
L 1165 3949 
Q 1139 3949 1139 3923 
L 1139 2547 
Q 1139 2522 1165 2522 
L 2726 2522 
Q 2790 2522 2790 2458 
L 2790 2054 
Q 2790 1990 2726 1990 
L 1165 1990 
Q 1139 1990 1139 1965 
L 1139 557 
Q 1139 531 1165 531 
L 3437 531 
Q 3501 531 3501 467 
L 3501 64 
Q 3501 0 3437 0 
L 589 0 
Q 525 0 525 64 
L 525 4416 
Q 525 4480 589 4480 
L 3437 4480 
Q 3501 4480 3501 4416 
L 3501 4013 
z
" transform="scale(0.015625)"/>
      <path id="Barlow-Medium-31" d="M 1088 4461 
Q 1126 4480 1171 4480 
L 1677 4480 
Q 1741 4480 1741 4416 
L 1741 64 
Q 1741 0 1677 0 
L 1190 0 
Q 1126 0 1126 64 
L 1126 3821 
Q 1126 3834 1116 3840 
Q 1107 3846 1094 3840 
L 422 3610 
Q 410 3603 390 3603 
Q 352 3603 346 3654 
L 320 4019 
Q 320 4083 358 4096 
L 1088 4461 
z
" transform="scale(0.015625)"/>
     </defs>
     <use xlink:href="#Barlow-Medium-54"/>
     <use xlink:href="#Barlow-Medium-44" x="57.399994"/>
     <use xlink:href="#Barlow-Medium-43" x="119.199982"/>
     <use xlink:href="#Barlow-Medium-49" x="179.899979"/>
     <use xlink:href="#Barlow-Medium-20" x="205.899963"/>
     <use xlink:href="#Barlow-Medium-61" x="225.899948"/>
     <use xlink:href="#Barlow-Medium-6c" x="277.599945"/>
     <use xlink:href="#Barlow-Medium-6f" x="301.09993"/>
     <use xlink:href="#Barlow-Medium-6e" x="356.599915"/>
     <use xlink:href="#Barlow-Medium-67" x="410.799911"/>
     <use xlink:href="#Barlow-Medium-20" x="465.099899"/>
     <use xlink:href="#Barlow-Medium-6f" x="485.099884"/>
     <use xlink:href="#Barlow-Medium-70" x="540.599869"/>
     <use xlink:href="#Barlow-Medium-74" x="596.399857"/>
     <use xlink:href="#Barlow-Medium-69" x="633.29985"/>
     <use xlink:href="#Barlow-Medium-6d" x="658.799835"/>
     <use xlink:href="#Barlow-Medium-69" x="741.399826"/>
     <use xlink:href="#Barlow-Medium-7a" x="766.899811"/>
     <use xlink:href="#Barlow-Medium-61" x="811.999802"/>
     <use xlink:href="#Barlow-Medium-74" x="863.699799"/>
     <use xlink:href="#Barlow-Medium-69" x="900.599792"/>
     <use xlink:href="#Barlow-Medium-6f" x="926.099777"/>
     <use xlink:href="#Barlow-Medium-6e" x="981.599762"/>
     <use xlink:href="#Barlow-Medium-20" x="1035.799759"/>
     <use xlink:href="#Barlow-Medium-72" x="1055.799744"/>
     <use xlink:href="#Barlow-Medium-75" x="1092.899734"/>
     <use xlink:href="#Barlow-Medium-6e" x="1146.699722"/>
     <use xlink:href="#Barlow-Medium-73" x="1200.899719"/>
     <use xlink:href="#Barlow-Medium-20" x="1249.599716"/>
     <use xlink:href="#Barlow-Medium-2d" x="1269.599701"/>
     <use xlink:href="#Barlow-Medium-20" x="1309.599686"/>
     <use xlink:href="#Barlow-Medium-4e" x="1329.59967"/>
     <use xlink:href="#Barlow-Medium-4d" x="1396.899658"/>
     <use xlink:href="#Barlow-Medium-46" x="1468.399643"/>
     <use xlink:href="#Barlow-Medium-20" x="1524.899628"/>
     <use xlink:href="#Barlow-Medium-2d" x="1544.899612"/>
     <use xlink:href="#Barlow-Medium-20" x="1584.899597"/>
     <use xlink:href="#Barlow-Medium-50" x="1604.899582"/>
     <use xlink:href="#Barlow-Medium-45" x="1664.19957"/>
     <use xlink:href="#Barlow-Medium-43" x="1723.999557"/>
     <use xlink:href="#Barlow-Medium-20" x="1784.699554"/>
     <use xlink:href="#Barlow-Medium-34" x="1804.699539"/>
     <use xlink:href="#Barlow-Medium-37" x="1861.699524"/>
     <use xlink:href="#Barlow-Medium-31" x="1909.799515"/>
     <use xlink:href="#Barlow-Medium-20" x="1944.999512"/>
     <use xlink:href="#Barlow-Medium-32" x="1964.999496"/>
     <use xlink:href="#Barlow-Medium-30" x="2019.39949"/>
     <use xlink:href="#Barlow-Medium-30" x="2075.999481"/>
     <use xlink:href="#Barlow-Medium-35" x="2132.599472"/>
    </g>
   </g>
   <g id="legend_1">
    <g id="patch_7">
     <path d="M 370.40375 303.184 
L 408.56 303.184 
Q 410.32 303.184 410.32 301.424 
L 410.32 227.98625 
Q 410.32 226.22625 408.56 226.22625 
L 370.40375 226.22625 
Q 368.64375 226.22625 368.64375 227.98625 
L 368.64375 301.424 
Q 368.64375 303.184 370.40375 303.184 
z
" style="fill: #eaeaf2; opacity: 0.8; stroke: #cccccc; stroke-width: 0.8; stroke-linejoin: miter"/>
    </g>
    <g id="text_14">
     <!-- Topics -->
     <g style="fill: #262626" transform="translate(375.297875 236.62975)scale(0.096 -0.096)">
      <defs>
       <path id="Barlow-Medium-63" d="M 1754 -51 
Q 1267 -51 921 195 
Q 576 442 448 864 
Q 352 1158 352 1638 
Q 352 2080 448 2413 
Q 576 2822 925 3065 
Q 1274 3309 1754 3309 
Q 2234 3309 2592 3065 
Q 2950 2822 3059 2451 
Q 3098 2349 3110 2240 
Q 3110 2189 3053 2176 
L 2573 2106 
L 2560 2106 
Q 2515 2106 2496 2163 
L 2477 2266 
Q 2426 2483 2227 2630 
Q 2029 2778 1747 2778 
Q 1472 2778 1280 2630 
Q 1088 2483 1030 2240 
Q 973 2010 973 1632 
Q 973 1261 1030 1030 
Q 1094 774 1283 627 
Q 1472 480 1747 480 
Q 2029 480 2230 627 
Q 2432 774 2483 1011 
Q 2490 1018 2486 1027 
Q 2483 1037 2490 1043 
L 2490 1069 
Q 2509 1120 2560 1107 
L 3040 1030 
Q 3091 1018 3091 979 
L 3091 954 
Q 3091 896 3059 813 
Q 2950 422 2592 185 
Q 2234 -51 1754 -51 
z
" transform="scale(0.015625)"/>
      </defs>
      <use xlink:href="#Barlow-Medium-54"/>
      <use xlink:href="#Barlow-Medium-6f" x="57.399994"/>
      <use xlink:href="#Barlow-Medium-70" x="112.899979"/>
      <use xlink:href="#Barlow-Medium-69" x="168.699966"/>
      <use xlink:href="#Barlow-Medium-63" x="194.199951"/>
      <use xlink:href="#Barlow-Medium-73" x="246.799942"/>
     </g>
    </g>
    <g id="line2d_21">
     <path d="M 372.16375 245.94275 
L 380.96375 245.94275 
L 389.76375 245.94275 
" style="fill: none; stroke: #4c72b0; stroke-width: 1.2; stroke-linecap: round"/>
    </g>
    <g id="text_15">
     <!-- 10 -->
     <g style="fill: #262626" transform="translate(396.80375 249.02275)scale(0.088 -0.088)">
      <use xlink:href="#Barlow-Medium-31"/>
      <use xlink:href="#Barlow-Medium-30" x="35.199997"/>
     </g>
    </g>
    <g id="line2d_22">
     <path d="M 372.16375 258.183 
L 380.96375 258.183 
L 389.76375 258.183 
" style="fill: none; stroke-dasharray: 4.8,1.8; stroke-dashoffset: 0; stroke: #dd8452; stroke-width: 1.2"/>
    </g>
    <g id="text_16">
     <!-- 20 -->
     <g style="fill: #262626" transform="translate(396.80375 261.263)scale(0.088 -0.088)">
      <use xlink:href="#Barlow-Medium-32"/>
      <use xlink:href="#Barlow-Medium-30" x="54.399994"/>
     </g>
    </g>
    <g id="line2d_23">
     <path d="M 372.16375 270.42325 
L 380.96375 270.42325 
L 389.76375 270.42325 
" style="fill: none; stroke-dasharray: 1.2,1.2; stroke-dashoffset: 0; stroke: #55a868; stroke-width: 1.2"/>
    </g>
    <g id="text_17">
     <!-- 30 -->
     <g style="fill: #262626" transform="translate(396.80375 273.50325)scale(0.088 -0.088)">
      <defs>
       <path id="Barlow-Medium-33" d="M 2861 2125 
Q 2989 1811 2989 1402 
Q 2989 1062 2886 774 
Q 2746 378 2419 163 
Q 2093 -51 1632 -51 
Q 1171 -51 835 185 
Q 499 422 365 826 
Q 294 1005 282 1338 
Q 282 1402 346 1402 
L 838 1402 
Q 902 1402 902 1338 
Q 915 1107 954 998 
Q 1018 762 1194 621 
Q 1370 480 1632 480 
Q 2118 480 2285 922 
Q 2368 1114 2368 1421 
Q 2368 1747 2266 2003 
Q 2086 2400 1626 2400 
Q 1517 2400 1350 2304 
Q 1325 2291 1312 2291 
Q 1280 2291 1261 2323 
L 1018 2656 
Q 1005 2682 1005 2701 
Q 1005 2720 1024 2746 
L 2118 3917 
Q 2138 3949 2106 3949 
L 403 3949 
Q 339 3949 339 4013 
L 339 4416 
Q 339 4480 403 4480 
L 2886 4480 
Q 2950 4480 2950 4416 
L 2950 3955 
Q 2950 3923 2918 3878 
L 1946 2816 
Q 1933 2803 1939 2793 
Q 1946 2784 1965 2778 
Q 2291 2746 2515 2576 
Q 2739 2406 2861 2125 
z
" transform="scale(0.015625)"/>
      </defs>
      <use xlink:href="#Barlow-Medium-33"/>
      <use xlink:href="#Barlow-Medium-30" x="52.399994"/>
     </g>
    </g>
    <g id="line2d_24">
     <path d="M 372.16375 282.6635 
L 380.96375 282.6635 
L 389.76375 282.6635 
" style="fill: none; stroke-dasharray: 3.6,1.5,1.8,1.5; stroke-dashoffset: 0; stroke: #c44e52; stroke-width: 1.2"/>
    </g>
    <g id="text_18">
     <!-- 40 -->
     <g style="fill: #262626" transform="translate(396.80375 285.7435)scale(0.088 -0.088)">
      <use xlink:href="#Barlow-Medium-34"/>
      <use xlink:href="#Barlow-Medium-30" x="56.999985"/>
     </g>
    </g>
    <g id="line2d_25">
     <path d="M 372.16375 294.90375 
L 380.96375 294.90375 
L 389.76375 294.90375 
" style="fill: none; stroke-dasharray: 6,1.2,1.2,1.2; stroke-dashoffset: 0; stroke: #8172b3; stroke-width: 1.2"/>
    </g>
    <g id="text_19">
     <!-- 50 -->
     <g style="fill: #262626" transform="translate(396.80375 297.98375)scale(0.088 -0.088)">
      <use xlink:href="#Barlow-Medium-35"/>
      <use xlink:href="#Barlow-Medium-30" x="52.299988"/>
     </g>
    </g>
   </g>
  </g>
 </g>
 <defs>
  <clipPath id="pa7c2bfcf28">
   <rect x="57.6" y="41.472" width="357.12" height="266.112"/>
  </clipPath>
 </defs>
</svg>
